<svg id="Layer_1" data-name="Layer 1" xmlns="http://www.w3.org/2000/svg" viewBox="0 0 55.73 55.73"><defs><style>.cls-1{fill:#6779ad;stroke:#000;}.cls-1,.cls-2{stroke-miterlimit:10;}.cls-2{fill:#39b54a;stroke:#39b54a;}</style></defs><title>$</title><circle class="cls-1" cx="27.5" cy="28.5" r="25"/><rect x="25" y="34" width="2" height="15"/><rect x="25" y="9" width="2" height="13"/><rect x="29" y="21" width="2" height="15"/><path class="cls-2" d="M37,14c-13-4-20,5-19,9s8,6,13,6,5,5,5,5a8.75,8.75,0,0,1-6,8c-6,2-13-8-13-8l-2,5c13,11,22,0,22,0s5-5,3-10-10-5-10-5-11-1-7-6,11,1,11,1"/><rect x="29" y="34" width="2" height="15"/><rect x="29" y="9" width="2" height="13"/><rect x="25" y="21" width="2" height="15"/></svg>