<svg id="Layer_1" data-name="Layer 1" xmlns="http://www.w3.org/2000/svg" viewBox="0 0 55.73 55.73"><defs><style>.cls-1{fill:none;}.cls-1,.cls-2{stroke:#000;stroke-miterlimit:10;}.cls-2{fill:#fff;stroke-width:0.5px;}</style></defs><title>$</title><circle class="cls-1" cx="27.5" cy="27.5" r="25"/><rect x="25" y="33" width="2" height="15"/><rect x="25" y="8" width="2" height="13"/><rect x="29" y="20" width="2" height="15"/><path class="cls-2" d="M34,18s-7-6-11-1,7,6,7,6,8,0,10,5-3,10-3,10-9,11-22,0l2-5s7,10,13,8a8.75,8.75,0,0,0,6-8s0-5-5-5-12-2-13-6,6-13,19-9Z"/><rect x="29" y="33" width="2" height="15"/><rect x="29" y="8" width="2" height="13"/><rect x="25" y="20" width="2" height="15"/></svg>