<svg id="Layer_1" data-name="Layer 1" xmlns="http://www.w3.org/2000/svg" viewBox="0 0 65 70"><defs><style>.cls-1{fill:#ff5960;}</style></defs><title>Artboard 1</title><path class="cls-1" d="M64,54.3A14.38,14.38,0,0,1,51.41,68.22a16.77,16.77,0,0,1-12.07-3.61,66.91,66.91,0,0,1-5.67-5c-.64-.6-1-.49-1.6,0-2.22,2-4.45,3.91-6.79,5.72-.88.68-2.15.83-3.09,1.46a10.17,10.17,0,0,1-5.34,1.45A12.84,12.84,0,0,1,8.7,66.14a15,15,0,0,1-4.25-3.91,13.64,13.64,0,0,1-1.52-13.1C4,46.33,5.3,43.61,6.57,40.88q3.27-7,6.66-14c1.13-2.32,2.2-4.66,3.39-6.95s2.29-4.75,3.57-7a55.43,55.43,0,0,1,4.65-7.58,10,10,0,0,1,9.28-3.66,10.24,10.24,0,0,1,7.44,4.23,41.84,41.84,0,0,1,2.91,5.21c1.07,2,2.18,3.93,3.2,5.94q2.84,5.57,5.58,11.19c2.2,4.51,4.4,9,6.48,13.59,1.32,2.89,2.48,5.85,3.58,8.82A21.09,21.09,0,0,1,64,54.3ZM8.19,61.88c.57.35,1.09.65,1.58,1a11.2,11.2,0,0,0,4.44,1.89,12.66,12.66,0,0,0,8.44-1.82,29.91,29.91,0,0,0,6.91-5.73,1.29,1.29,0,0,0,.1-2.06,42.93,42.93,0,0,1-5.94-9.53,19.36,19.36,0,0,1-2-9.31,10.79,10.79,0,0,1,2.84-6.52,9,9,0,0,1,4.54-2.83,15.37,15.37,0,0,1,5.23-.5,11.91,11.91,0,0,1,4.92,1.76c3.75,2.44,5.16,6.21,4.79,10.54-.33,3.89-2,7.39-4,10.7-1.23,2.08-2.75,4-4.18,6-.39.53-.46,1,0,1.45.78.81,1.54,1.63,2.37,2.39a22.13,22.13,0,0,0,7.85,5.06,10.89,10.89,0,0,0,11.53-2.92c3.09-3.56,3.17-8.4,1.12-12.65-1.76-3.66-3.43-7.37-5.15-11.05-1.29-2.77-2.56-5.56-3.9-8.31-1.62-3.31-3.3-6.6-5-9.87C43,16,41.22,12.56,39.33,9.16a7,7,0,0,0-4.26-3.5,7.29,7.29,0,0,0-8.6,3.52c-1,1.73-1.93,3.51-2.85,5.3-2.34,4.56-4.68,9.12-7,13.71-1.83,3.7-3.58,7.43-5.32,11.17C9.71,42.9,8,46.42,6.54,50a10.53,10.53,0,0,0,1.29,11A3.29,3.29,0,0,1,8.19,61.88ZM40.27,37.83a7.06,7.06,0,0,0-1.78-5.51c-2.25-2.35-5-2.76-8-1.94A6.64,6.64,0,0,0,25.82,35a9.16,9.16,0,0,0,0,5.28c1.13,4.61,3.66,8.49,6.44,12.24.46.61.87.57,1.27,0,1.45-2.23,3-4.38,4.32-6.7A16.18,16.18,0,0,0,40.27,37.83Z"/></svg>