<svg id="Layer_1" data-name="Layer 1" xmlns="http://www.w3.org/2000/svg" viewBox="0 0 55.73 55.73"><defs><style>.cls-1{fill:#fff;}.cls-2{fill:#202020;}.cls-3{fill:#ff2020;}</style></defs><title>badcheck</title><circle class="cls-1" cx="28" cy="28" r="25"/><path class="cls-2" d="M52.83,27.5c.09.08.29,0,.23-.19l-.34-.16Z"/><path class="cls-2" d="M53.37,26c-.17-.26-.47-.54-.76-.35.33.24.2.31.59.57.05.23-.09.4-.21.37.09.08-.05.35.16.47a.88.88,0,0,0,0-1.06C53.22,25.87,53.31,25.94,53.37,26Z"/><path class="cls-2" d="M42.94,6.7l.1.12A.4.4,0,0,0,42.94,6.7Z"/><path class="cls-2" d="M29.71,1.94c.11,0,.16,0,.16-.06S29.69,1.91,29.71,1.94Z"/><path class="cls-2" d="M27.27,1.53l.15,0C27.36,1.51,27.3,1.5,27.27,1.53Z"/><path class="cls-2" d="M42.94,6.7l-.25-.31C42.61,6.46,42.8,6.57,42.94,6.7Z"/><path class="cls-2" d="M52.21,23a.51.51,0,0,0,.12.18L52.26,23Z"/><path class="cls-2" d="M47.81,10.66l.08.09.17,0Z"/><path class="cls-2" d="M50.7,14.55c0-.1-.31,0-.44,0a.35.35,0,0,1,.29.1A.45.45,0,0,0,50.7,14.55Z"/><path class="cls-2" d="M53.1,21.78l.07.12Z"/><path class="cls-2" d="M45.38,8.18a.23.23,0,0,0,0-.11A.16.16,0,0,0,45.38,8.18Z"/><path class="cls-2" d="M51.59,32.63h0S51.61,32.6,51.59,32.63Z"/><path class="cls-2" d="M53.57,27.5v.08l.16,0Z"/><path class="cls-2" d="M22.71,1.65h0C22.84,1.6,22.78,1.62,22.71,1.65Z"/><path class="cls-2" d="M2,33.09c.13-.51.51.67.6-.08C2.47,33.11,2,32.49,2,33.09Z"/><path class="cls-2" d="M52.23,22.91c0-.06,0-.12,0-.18A.54.54,0,0,0,52.23,22.91Z"/><path class="cls-2" d="M2.56,33h0v0Z"/><path class="cls-2" d="M13.08,5.77a.38.38,0,0,0,.16,0S13.18,5.78,13.08,5.77Z"/><path class="cls-2" d="M20.26,2.84l-.19,0Z"/><path class="cls-2" d="M10.16,8.58c-.09.05-.14,0-.22.17H10C10,8.68,10,8.62,10.16,8.58Z"/><path class="cls-2" d="M7.31,11.61l.09,0,.07-.11Z"/><path class="cls-2" d="M46.47,43a.87.87,0,0,1,.31,0C46.59,42.91,46.92,42.45,46.47,43Z"/><path class="cls-2" d="M52.37,23a.15.15,0,0,1-.14-.09l0,.13A.1.1,0,0,0,52.37,23Z"/><path class="cls-2" d="M11.53,10.32l-.48.37A4,4,0,0,0,11.53,10.32Z"/><path class="cls-2" d="M21.33,50.43h.15A.18.18,0,0,0,21.33,50.43Z"/><path class="cls-2" d="M9.85,12a.91.91,0,0,0-.38.12.24.24,0,0,0,0,.1Z"/><path class="cls-2" d="M46.79,43h0Z"/><path class="cls-2" d="M48.58,39.35c-.31.48.17.42.28.64-.28.65-.4.13-.68.22-.13.42-.06.88-.27,1.13-.06,0-.12,0-.14-.08-.05.54-.8,1.1-.87,1.74a.22.22,0,0,1-.12,0,1,1,0,0,1,.44.27c-.18.2-.17.52-.42.44.12-.12.05-.19,0-.3l-.11.28c-.43,0,.17-.36,0-.53-.28.47-.51,1.14-.86,1.38-.3-.18.58-.79,0-.6l.53-.38c-.73,0,.29-.26-.44-.32-.65.52-.47.83-1.17,1.31,0,.26.24.16.23.42-.68,1.05-1.26,0-1.62.9,0,.31.15.7-.49.89l-.06-.43c-.67.44,0,.72-.89,1,0-.22.44-.48.32-.45-.62.07-.19.41-.54.66l-.26-.24c-.72.46-1.37,1.23-2.23,1.68,0-.11.1-.28-.15-.28a7.57,7.57,0,0,1-1.7.81c-.62.16-1.25.28-1.82.38l-.33.43c-.1,0-.22-.08-.13-.16-.47,0,0,.18-.15.35s-.38-.08-.24-.2A8.56,8.56,0,0,1,33.3,51a3,3,0,0,1-1.58.17l.15-.11c-.66,0-.66.71-1.3.53l.11-.07c-1.43,0-3,.33-4.1-.22-.24.42-1.39-.25-1.54.28a5.79,5.79,0,0,0-1.62-.84c-.29-.06-.52.28-.9.25l.06-.3-.57.19-.18-.42h-.36c.13.05.26.21.21.29-.58,0-1.25-.55-1.21-.72l-1.31-.2c.07-.11.29-.07.48-.09-.76.06,0-.35-.7-.29.05.09-.11.16-.15.21a3.69,3.69,0,0,0-1.4-.75l.18-.15c-.86-.42-1.84-.84-2.77-1.4.28.28,0,.55-.29.41l.07-.34c-.29.06.22.28-.28.26-.33-.25,0-.45.23-.42a4.46,4.46,0,0,1-.47-.19c0-.1.15-.07.25-.16-.28,0-.49-.76-.93-.65l0-.09a24,24,0,0,1-2-1.46c-.2.2-.42-.08-.78-.09a14.26,14.26,0,0,0-1.27-1.78c-.48-.31-.29,0-.58,0,.17-.2-.32-.81.07-.6-.3-.36-.49-.59-.72-.83s-.5-.49-.89-1c0,.17,0,.32-.09.3s-.17-.48-.05-.52l.05,0c-1.1-.95-.85-3-1.74-3.77l0,0-.64-.93c-.14-.49.29.22.31-.19A2.49,2.49,0,0,1,4.55,34a3.53,3.53,0,0,0-.4-1.29,2.63,2.63,0,0,0,0-1.78c-.08-.34-.17-.69-.21-1A2.19,2.19,0,0,1,4.07,29l-.17.07c-.19-.25.09-.32.12-.52-.14,0-.15.29-.25.13a10.41,10.41,0,0,1,.12-3.42c.11-.57.29-1.13.43-1.69l.22-.83.29-.8c.26-.78-.77-.7-.09-1.6.07.13.16.26.23.39a9,9,0,0,1,.7-2.46,14.71,14.71,0,0,0,1-2.33c0,.12.1.17,0,.31.39-.18.69-1.08.52-1.2.15-.21.18,0,.35,0s.19-.92.52-.93c.05,0,0,.12,0,.18,0-.25.67-.82.31-.81.49-.4.6-1,1.08-1.3,0-.44.83-.68.58-1.05.3.34,1-.55,1.17-.94,0,.19.35-.12.36.12.33-.3.58-.64.37-.76.93-.16,1.06-1.37,1.83-1.1.23-.24.46-.49.7-.71l.75-.61A10.92,10.92,0,0,1,16.75,6c.08.22-.22.35-.49.52s-.53.35-.39.54c.43-.39.77-.71,1.13-1a4.33,4.33,0,0,1,1.28-.74c.29-.07-.08.25-.13.36A5.9,5.9,0,0,1,19.67,5a13,13,0,0,0,1.45-.61s-.09.11-.18.17c.19-.06.47,0,.39-.24l-.18.1c-.4-.21.62-.8.62-1-.19.66,1-.11.66.75.12-.07.26-.21.2-.33.2,0,.28.05.12.26.67-.28.39-.41,1-.52,0,.1-.11.16-.16.28a1.67,1.67,0,0,1,1.16-.48c0,.06,0,.13-.12.16a7.13,7.13,0,0,1,2.65-.54c-.3.45.36.12.42.49a3.71,3.71,0,0,1,.56-.11l-.22-.19c.49,0,.94-.22,1.36-.08l-.38.14.93,0-.52-.17c.52-.17,0-.47.64-.34-.14,0,.51,0,.74.29h0a1.17,1.17,0,0,1,.89,0c.08.13-.14.4-.09.48.29-.27,1.16.07,1.53-.18a.29.29,0,0,0-.14.29l.25-.2c.21.14.23.18.16.33.66.21-.11-.52.65-.11-.07,0,0,0-.19.05.77.31,1.61.21,2.28.62.09.43-.65-.14-.51.25.52.15,1.08.23,1.65.34a4.9,4.9,0,0,1,1.55.56l-.16-.12c.36-.41.6.57,1.2.58-.14,0-.29.19-.23.15a12.52,12.52,0,0,0,2.37,1.06l-.19,0c.28.34.87.72,1.21,1,.19,0,.39.15.38-.11a3.47,3.47,0,0,0,1.47,1.45,5.84,5.84,0,0,1,.82.56,2,2,0,0,1,.51.84c-.1-.11-.33-.18-.25-.09l.82.7c.12-.22,0-.2,0-.48a1.15,1.15,0,0,1,.67.37c-.45-.26-.28.25-.24.48,0-.07.14-.07.18-.13,0,.71.42-.22.68.58l-.12,0c.22.19.52.31.68.58-.14.26-.29-.17-.48-.06.26.34,1,.38.94.88a4.65,4.65,0,0,0-.49-.44,1.41,1.41,0,0,0,.22.82v0l.27.7,0-.2c.86.11.73.85,1.45,1.31-.7-.44-.27,0-.56.1,0,.21,0,.5-.06.47.37.2.08.6.61.88-.08.06.15.33-.1.37.27.37.11-.16.24-.18.63.49.21,1.65,1,2.42.43.76.76.84,1.14,1.59-.08.3-.4-.13-.4-.13a2.08,2.08,0,0,0,.28,1.15c-.1-.07-.15,0-.24.18.08.32.38.15.31.61a1.37,1.37,0,0,1-.44-.26c.15.36.39.71.54,1.1-.15.13-.29-.21-.42-.33.14.43.35,1.13.6,1.25,0-.1.06-.2.08-.3,0,.16-.22.11-.28,0-.27-.36,0-.56.1-.6l.11.28c.52-.37-.27-1.14-.33-1.71l.45.16-.43-.53c.07-.14.29-.28.41,0,.11-.46-.23-.33-.1-.74,0,0,0,0,.07,0l-.23-.37c.11.06.27-.14.27.12,0-.79-.61-1.09-.38-1.45l0,.05c-.46-.95-.32,0-.92-.62l.53-.74H52.1c0-.1-.08-.31,0-.32-.33-.3-.1.11-.36,0,.1-.6-.67-1.24-.28-1.55-.29-.07.05.52-.33.09.4-.37-.36-.53-.35-1.06.3,0,.38.48.38-.06-.27,0-.34-.24-.39-.49a1.65,1.65,0,0,0-.25-.67c-.32.17-.59-.66-1-1.17.16-.05-.59-1.12-.86-1.71l.06,0c-.37.14-.68-.44-1.07-.72.18-.13.3-.13.55,0l-.3-.33a.81.81,0,0,1-.53-.24l.28-.1a8.39,8.39,0,0,1-1.46-1.31c-.2.16-.05.91-.75.51.07-.12.21-.31.41-.22-.06,0-.26-.08-.32-.21l.4,0c-.19-.3-.27,0-.45-.17.14-.14-.06-.24.08-.33s.12.22.26.23a1.49,1.49,0,0,1-.41-.77.22.22,0,0,1-.36.07c-.45-.38,0-.32-.19-.62-.19,0-.42-.32-.6-.1-.14-.1-.08-.23-.09-.33-.33-.08-1.18-.82-1.08-.36l.05.06,0,0h0a2.78,2.78,0,0,1-.67-.36,6.35,6.35,0,0,1-.63-.44,6.22,6.22,0,0,0-1.27-.85l0-.09a6.85,6.85,0,0,0-1.68-.5c-.16-.07-.3-.34-.18-.42A2.45,2.45,0,0,1,37.6,3.8c.49,0-.09-.2.49,0-.52-.28-.6-.47-1.29-.43.29-.16-.32-.45-.61-.48l.33.31a5.44,5.44,0,0,1-.82-.29L36,2.67C34.86,2,33.67,2.76,32.9,2c-.36.18.62.26.29.48-.53-.13-1-.68-1.21-.71-.75-.29-.77.35-1.55.16.09.12.15.44-.44.53-.54-.07-.65-.53-.29-.61.13,0,.2,0,.19.08.18,0,.42-.07.21-.21L30,1.78c-.27-.13-1-.16-.85-.35-.43.09-.19.19.12.26a8.44,8.44,0,0,0-1.86-.15c.12.06.23.19.11.2-1.09-.09-.47.25-1.19.34-.42-.16.12-.44-.61-.25-.46-.1-.12-.31.05-.41a4,4,0,0,1-1.68,0l.35-.15a2.1,2.1,0,0,1-.56.14l.24.2c-.21,0-.39,0-.4-.08-.19.19.22.37-.16.64-.3-.07-.81.24-1,0,.89,0-.16-.3.57-.47a1.22,1.22,0,0,1-.53.07s0-.07.07-.09c-.89-.09-.31.44-1.16.64.07-.2-.28-.28-.41-.2.35-.08.24.25,0,.46-.58,0-.56.25-.84.3l.34,0c-.06.2-.34.23-.68.42-.07-.12.3-.21.15-.22-.3.44-1,0-1.51.42-.3,0-.14-.3-.41-.3-.56.43-.78,0-1.36.52.29.13.29.06-.06.49l1-.65-.54.63c.32-.14.6-.46.82-.48-.26.3-.24.23,0,.36-.58-.14-.77.59-1.36.6l-.24-.54a2.13,2.13,0,0,0-1.07.55,3.71,3.71,0,0,1-1.13.81l.35-.09c0,.28-.56.37-.81.63-.08-.18-.31-.13-.5-.16.09.09-.66.46-.51.83l-.54.07c-.77.45-.49,1-1.13,1.51,0-.33-.33-.18,0-.68-.21.19-.43.33-.34.43-.21,0-.4.72-.72.75,0,.14.08.32-.16.51-.05,0-.07-.07-.07-.07s-.27.42.08.4a2.44,2.44,0,0,0-1.29,1,3.32,3.32,0,0,1-1.16,1c-.32.53-.71,1.15-1,1.59,0-.06-.08-.06,0-.13-.57.53.22.71-.41,1.32-.5.21.09-.48-.15-.31-.61-.24-.49.93-1.1,1.25l0-.15c-.4.3-.27,1.1-.63,1.73,0,0,0-.06-.09,0A8.58,8.58,0,0,1,3.71,19c-.16-.29,0-.34-.3-.31-.08.31.42.06.27.66-.2.14-.48.52-.75.5l.19-.56c-.46.17-.25.73-.38,1l-.14-.08c-.19.9.19,1-.08,1.94l.14-.07c.25.59-.3.39-.11,1l-.41.09c0,.37.17,1.27.18,1.89a5,5,0,0,1-.39-1.61c-.06.35-.15,1.19,0,1.39,0-.14-.09-.33,0-.46a3.39,3.39,0,0,1,.32,1.71c-.76-.16-.31,1.79-.81,2.31a6.6,6.6,0,0,1,.16,1.88,15.52,15.52,0,0,0,.19,2c.51-.62.08.42.67.21.1.32.14.44.1.48l-.1,1.07c-.11.28-.21-.28-.34-.21.14.73-.17.37-.2.9.18-.16.37.17.4.6l.12-.66c.56.9-.2,1,.45,1.91l-.3-.25c.15.24.32.71.54,1.16a2,2,0,0,0,.88,1c0,.11-.12.3-.26.11a6.92,6.92,0,0,0,1.11,1.72,4.44,4.44,0,0,1,1,1.53H5.66c.16.18.45.2.51.52-.06,0-.18,0-.12.1s.6.35.72.66L6.48,43a3.09,3.09,0,0,0,1.07,1.15,7.15,7.15,0,0,1,1.22.78c-.31.28.22,1.15.56,1.51l-.06,0a8.1,8.1,0,0,0,1.59,1.17c.55.29,1.13.51,1.71.84a2.33,2.33,0,0,0,.52.68,9.78,9.78,0,0,0,.89.62c.65.42,1.37.86,1.93,1.24-.15-.16.18-.29.42-.23.25.22.91.09.7.44l-.1-.06c.05.46.69.66,1.17.82l.27-.46a3.45,3.45,0,0,0,2.11,1c.79.12,1.5.2,1.78.63a8.53,8.53,0,0,0,1.06-.07l-.07.28a9.67,9.67,0,0,0,2.41.36l-.24.19c.63.05.85-.77,1.4-.76l.15.43a6.84,6.84,0,0,0,3.22-.08.23.23,0,0,1-.21.21c.51,0,2,.06,1.73-.48.06.37,1.11-.12,1.64-.38l0,.29c.4-.46.4-.57,1-.82.16,0,.19.18,0,.17.55,0,.34-.36,1-.37l-.19.23c.54-.12.48-.18.7-.48s1-.28,1.16-.07a.67.67,0,0,1,.56-.5c.08.07,0,.17-.06.22.95-.11,1.13-.83,1.81-.83a.2.2,0,0,0,.17.1,10.42,10.42,0,0,1-1.16.5c.1.24.66,0,.37.55.37-.39.93-1.12,1.5-1.25a.33.33,0,0,1,.11,0l0,.05a.65.65,0,0,0,.31-.19,1.61,1.61,0,0,0,.46-.17c.16.15.65-.25.91-.4-.17-.23.19-.39-.24-.4.05,0,0,.06-.19.17a.49.49,0,0,0-.09.09v0l-.62.39a.77.77,0,0,1,.64-.5c0-.23.08-.48.12-.6.54.13,1.33-.08,1.55,0,.63-.68,1.7-1.33,1.76-2.12.14-.22.32-.08.44-.08-.08.14-.21.25-.22.36.3-.44,1.1-1.05.94-1.4.59-.31,0,.49.58-.15v.16A3.48,3.48,0,0,0,48,44a3.65,3.65,0,0,1,1.47-1.95c-.12.08-.18.12-.24.1a5.88,5.88,0,0,0,1-1.33,12.47,12.47,0,0,0,.8-1.48,22.1,22.1,0,0,1,1.52-3c.32-.54.12-.69.08-1.09l.33,0c0-.24-.11-.48-.16-.72a2,2,0,0,1,.53-1.17A1.55,1.55,0,0,0,53.72,32l-.22.11c.1-.4.08-1.3.3-1.2,0,0-.19-.16-.06-.31h.16a6.55,6.55,0,0,0-.17-1c.15-.77.62.17.71-1,0-.44-.4-1.23-.51-1.07s-.12.43-.28.44l-.06-.38c-.46-.08-.92-.34-1.3.54l.25.63-.24.19v-.52c-.23.29,0,.48.07.7a.42.42,0,0,0-.26.24c.14.21.28.43.41.65-.19.05-.32-.31-.48.08.16.31.45-.23.51.26-.26.27-.41.16-.29.53-.13,0-.19-.05-.22-.2.09.33-.07.82.15,1a1.05,1.05,0,0,0-.21.61c-.06.21-.13.38-.34.31a1.72,1.72,0,0,1,.14.89c-.38-.64-.3,1-.81.73.36.51-.27,1.36-.25,2.1,0-.05-.07-.15,0-.2a1.83,1.83,0,0,1-.52.59c.34.2.15.78.23,1.18-.55.26-.29-.46-.68-.48.3.11-.07.87.23.85-.37.22-.24.23-.61.24.41.29-.07.34,0,.74-.49.32-.47-.12-.64.44C48.47,39.87,48.58,39.35,48.58,39.35Zm-9.31,9.72h0l.25-.14Zm-1.05.5.46-.21a.13.13,0,0,1,0,.23C38.69,49.51,38.41,49.57,38.22,49.57Zm3.16.58c-.15.14-.24.12-.29.09l.28-.21v0A.36.36,0,0,1,41.38,50.15Z"/><path class="cls-2" d="M41.5,49.65l.06-.06h-.13l0,.11Z"/><path class="cls-2" d="M43.05,6.84l0,0a.15.15,0,0,1,0,.06A.21.21,0,0,1,43.05,6.84Z"/><polygon class="cls-2" points="22.59 50.6 22.58 50.67 22.69 50.64 22.59 50.6"/><path class="cls-2" d="M47.27,12a.17.17,0,0,0,0,.11A.22.22,0,0,0,47.27,12Z"/><path class="cls-2" d="M48.88,14.25l.12.39A2.46,2.46,0,0,0,48.88,14.25Z"/><path class="cls-2" d="M49.86,16.14l.12,0h0Z"/><path class="cls-2" d="M20.94,4.6l-.08,0C20.7,4.73,20.82,4.68,20.94,4.6Z"/><path class="cls-2" d="M30.87,3.1a2.47,2.47,0,0,1-.34.09C30.71,3.22,30.85,3.25,30.87,3.1Z"/><polygon class="cls-2" points="11.59 10.28 11.58 10.28 11.53 10.32 11.59 10.28"/><path class="cls-2" d="M30.06,3.15a.8.8,0,0,0,.47,0A1.22,1.22,0,0,0,30.06,3.15Z"/><path class="cls-2" d="M52.48,24.91V25h0Z"/><path class="cls-2" d="M52.53,25l0,.11C52.56,25.08,52.56,25,52.53,25Z"/><path class="cls-2" d="M52.65,25.36l-.08-.23C52.57,25.21,52.57,25.31,52.65,25.36Z"/><path class="cls-2" d="M52.12,22.12H52A.18.18,0,0,0,52.12,22.12Z"/><path class="cls-2" d="M51.87,21.3c0,.2-.08.55.05.81H52C51.83,22,52.09,21.45,51.87,21.3Z"/><path class="cls-2" d="M51.86,17.42a7.36,7.36,0,0,1,.2.73c.05-.16.13-.38.27-.07C52.3,17.06,52.2,18.35,51.86,17.42Z"/><path class="cls-2" d="M51,15.25c.23.34.14-.08.2-.09C50.94,15,50.89,14.94,51,15.25Z"/><path class="cls-2" d="M38.56,4.06l.14-.22C38.4,3.74,38.66,3.93,38.56,4.06Z"/><path class="cls-2" d="M35.14,4.21l.23.23.2-.18A3,3,0,0,0,35.14,4.21Z"/><polygon class="cls-2" points="33.76 1.99 33.9 1.99 33.37 1.95 33.76 1.99"/><path class="cls-2" d="M7.57,10.86l.31.13C8,10.8,7.74,10.54,7.57,10.86Z"/><path class="cls-2" d="M2.37,22.05a.53.53,0,0,0-.24.66C2.19,22.44,2.37,22.2,2.37,22.05Z"/><polygon class="cls-2" points="18.84 52.13 18.56 52.14 19.04 52.22 18.84 52.13"/><path class="cls-3" d="M44.09,15.94a.64.64,0,0,0,.14,0C44.17,16,44.13,16.06,44.09,15.94Z"/><path class="cls-3" d="M45.45,15.57a1.53,1.53,0,0,1-1.22.39C44.41,15.7,44.78,14.72,45.45,15.57Z"/><path class="cls-3" d="M43,14.54h.55C43.54,14.94,43.29,14.49,43,14.54Z"/><polygon class="cls-3" points="43.75 15.28 43.95 15.61 43.54 15.43 43.75 15.28"/><path class="cls-3" d="M32,33.8a1.72,1.72,0,0,1,.52.3Z"/><path class="cls-3" d="M30,33.59a.7.7,0,0,0-.2.11C29.79,33.64,29.85,33.62,30,33.59Z"/><path class="cls-3" d="M32.39,33l-.05.17C32.32,33.07,32.33,33,32.39,33Z"/><path class="cls-3" d="M37.82,23.56l.82.18C38.65,24.17,38.16,23.75,37.82,23.56Z"/><path class="cls-3" d="M22.73,34.07l.25.2C22.86,34.19,22.74,34.11,22.73,34.07Z"/><path class="cls-3" d="M25.45,30.82a2.05,2.05,0,0,1,.33.25h-.09Z"/><path class="cls-3" d="M32.25,32l0,0h.24C32.48,32.11,32.4,32.11,32.25,32Z"/><path class="cls-3" d="M22.23,34c-.13-.13-.28-.3-.48-.54Z"/><path class="cls-3" d="M29.76,33.72h0Z"/><path class="cls-3" d="M26.56,29.8a2.72,2.72,0,0,1-.27.1C26.29,29.78,26.41,29.76,26.56,29.8Z"/><path class="cls-3" d="M37.82,23.56l-.27-.06S37.69,23.49,37.82,23.56Z"/><path class="cls-3" d="M43.58,17.19c-.11.09-.27-.07-.43-.24A1.29,1.29,0,0,1,43.58,17.19Z"/><path class="cls-3" d="M11.57,33.93l0,0A0,0,0,0,1,11.57,33.93Z"/><path class="cls-3" d="M14.42,38.51a1.58,1.58,0,0,1-.15.22C14.18,38.75,14.27,38.63,14.42,38.51Z"/><path class="cls-3" d="M21.19,34.54c-.19.48.07-.66.08-.72l-.14.44q0-.2.1-.38l-.23.59c.07-.33-.33.11.15-.71l-.5.81a5,5,0,0,1,.35-.69q-.17.27-.33.56c-.1,0-.09-.16,0-.32s.19-.28.13-.34l-.22.26c-.19,0-.08-.16-.06-.31l-.33.39c-.49-.77-1.51-.22-1.77-1.33-.27-.13,0,.22-.24.41-.4.15-.34-.37-.22-.57-.54.58-.08.74-.77.91.14-.43-.45.6-.6.19l.66-.78c-.28-.06-.63.48-.79.15.07-.6,1.19-.38.88-1-.26-.2-2.22,1-2.23.18-.76-.07-1,1.25-1.3.51l-.18.8c-.3.09-.63.48-.68.1.23-.33.48-.82.4-1-.11,1-1.28.28-1.6,1.44l-.13-.21a.31.31,0,0,1-.15.16l-.27-.2c0,.3.21.72-.5,1l-.45-.24c-.34.46-.63.48-1,.8l.09,1.76c.22-.26.25-.56.56-.72.47.09-.26.63.32.59l.24-.41c-.11.13-.12.2-.21.18-.3.1-.08-.17.13-.35.51-.28.45.24.22.57.35.3.83-.6,1-.64-.57.8.51.56.36,1.06l.35-.54c.79-.23.53.41.5.7l.33-.39c.24.43,1.69-.51.57.94L14,38c.25,0,.73,0,.45.52.16-.14.38-.28.48-.26-.44.55,0,.32.39.51,0-.33.71-.82.73-1.13,1-.28-.45,1-.1,1.39.51-.11.17-.57.38-.84.06.44.67.35,1.08.29s.67-.06.31.9l-.52.27c0,.56.09.69.15.51-.1,0,0-.2,0-.37.54-.09.56.44.61,1.12s.12,1.47.52,1.65a6.82,6.82,0,0,1,.13-1c.38-.09-.32,2.29.42,2.08l0-.58c.22-.1.19.72.14.84.15-.64.31-.69.49-.57s.69.38,1.07-.84c0,1.06.55,1.81.76,1.51.32-.56-.11-.94.06-1.59.16.2.19.91.47.92a2.26,2.26,0,0,1-.28.72.58.58,0,0,0,.13.75l.11-.28c-.06,0-.15.11-.23,0-.12-.42.14-.37.18-.5a6.87,6.87,0,0,0,.57.45c0,.48-.33.28-.38.41.25,0,.53-.15.77-.15a.84.84,0,0,1,.36.06l.09,0s0,0,0-.05v-.1l0-.08a3.06,3.06,0,0,0,0-.56c0-.2,0-.4.06-.28,0-.37-.11-.37,0-.82,0-.12,0,.13.05.22l0-.08c.11-.28-.08-.65.16-.6l-.09-.25a3.33,3.33,0,0,1-.11-.37l.08.09h.06l.12,0,.31.11c.23.07.48.11.59-.26-.23-.56-.38-.24-.57-.55.31.19.59-.1.84-.48s.47-.82.92-.77a2.26,2.26,0,0,0,.6.89,1,1,0,0,1,.38.95c-.62-.76-.49,0-.76,0,.82,1,1.18-.13,1.45-.7.06-.46.19-.69.66-.23l-.43-.72c.15,0,.76,0,.77.45l.28-1.35c-.68,0-2-.34-1.52.48-.68-.39-.15-.75-.9-1.25,1.18.42-.18-.69.31-1,.65,1,1.47.4,1.88.71,0-.15.16-.28.37-.35a1.92,1.92,0,0,1,.63,0c.24-.19-.11-1.21.45-1.4a2.69,2.69,0,0,1-1.45-.44c.45,0,.58-.19-.06-.67-1.65-.12,1.37,1.22.19,1.32A1.76,1.76,0,0,0,27,36.67a5.52,5.52,0,0,0-1-.89c1.85.66.82-.91,1.94-.9.61.09,1.49.91,2,.55l.21.73c-.14-.74.54.2,1-.05l-.61-.19c.05-.29.2-.32.66-.19l-.92-.34c0-.19,0-.48.51-.17a3.56,3.56,0,0,0-.45-.37c.15.06.27.06.34-.1-.15,0-.14.12-.37,0,.56-.42-.77-.71-.47-1a.64.64,0,0,1-.4-.51c1.24.85,1.86.29,2.67.59h0l.81-.11c-.16,0-.43-.31-.47-.53v0c-.09-.28-1.46-.76-.81-.94l.52,0c-.07,0-.23-.16-.31-.25h.5c-.9-1.16,1.11-.21.85-1,0,.19-.21.31-.52,0-.08-.18.14-.2.37-.14l-.15-.08,1.32-.24c-.45-.24-.8.18-1.12-.35s.28-.32.43-.43c.31.25.4.72.76.58-.13-.15-.28-.64-.6-.69a4.44,4.44,0,0,1,1.75-.07c-.08-.18-.3-.16-.37-.16l.08.09c-.29,0-.83-.59-.74,0-1.06-.75.05-.67.11-1l-1-.1c-.86-1.84,1.47-1.65,2.05-2.34.14.46-.29.4.52,1,.73-.13.51-.21,1-.51h-.07c-.21-.56.81-.21.23-.95-.51-.27.14.66-.73-.07l.52-.49c-.65-.27-.53.49-.82.6-.08.19.37-.2.88.35-.45.48-1.11.13-2.14-.29-.74-.34-.43-.74-.35-.84,1.19.41,2,.29,2-.56l-.4-.84c.81.27,1.86,1.39,2.1.83l-.57-.28c-.09-.26-.1-.38-.05-.42-.51-.12-1.09-.27-1.61-.41-.74-1.13,1.14-.32,1.67-.49-.14-.09-.3,0-.58-.19.3-.76,2-.27,2.5-.5-.23-.57-.6.06-1.13-.62.45,0,.17-.75.78-.25-.89-.71.44-.55-.71-.89.45-1.14,2.08-1.23,3.33-1.43a2.41,2.41,0,0,1-.55-.64A1.36,1.36,0,0,1,39.65,18c-.19-.61,1,.18.79-.12-.28-.13-.47,0-.84-.37-.17-.71.57-.14.82-.21l.09.3c1.05.12,1.57,1.25,1.94.54-.22-.71-.35-.44-.89-1.09.34.14.24-.94.94-.34l-.32.33c.4,0,.64-.19,1-.09-.13-.13-.26-.27-.35-.29.37.06.59-.19,1,.19l-.48-.78c.11.42-.2.75-.57.39-.44-.66.23-.55.35-.72-.86.34-1.74-.77-2,.17l.28.14c0,.83-1,.27-1.35.57a.92.92,0,0,0-.36-.57c-.28,1.14-1.31,1.38-1.81,2.42L37,18.05l.46.5c-.17.58-.75-.61-.95-.32.09-.09.15,0,.29.11-1-.12.2.69-.2.78.63.4.65-.28,1.22.52-1-.14-1.32.84-2.57-.22-.31,1.27-2,1.63-2.74,2.28.14.29.22.08.37.27-1-.32-.3,1.39-1,.86a3.29,3.29,0,0,0,.64.92,1.54,1.54,0,0,0-1.08.19l.32,0,.07.09-.45,0,0,0c-.67.44-1,1.26-2.17,1.26.68,0,.76.7,1.14.75a1.4,1.4,0,0,0-2.1.76,2.3,2.3,0,0,0,.61.41h-.68l.3.16c-.21.71-1.87.47-1.62,1.21.3-.14.53,0,.91.26a2.72,2.72,0,0,1-1.26,1,.82.82,0,0,1,.26.12c0,.19-.37.15-.59.19l.55.4c-.43.07-.36.58-1,.57.54.53-1,.32-1,.83-.22,0,.84.15.56.49-1.26-.76-.34.45-1.68-.4l.27.64-.71-.37c1.06,1.09-.82,0-.7.7.16.07.23.06.31.14-.22,0-.5.28-.69-.17-.05.09-.32.34-.36.42a2,2,0,0,0,.45.32c-.19-.13-.2-.15-.14-.12a2.26,2.26,0,0,1,.4-.1.67.67,0,0,1,.34.49c0,.18.14.2.42.45L23,34.26l.33.26c-.68-.33-.36.16-1.07-.5.14.17.24.31.19.31l-.56-.69v.05q.37.52.77,1l0,0h0c0,.38-.82-.86-.92-1.09.36.75.27.66.18.51s-.17-.35.08.47c.06.14.13.27.2.4-.18-.17.13,1-.11.54l-.1-.73a8.89,8.89,0,0,0-.34-1.29c.12.39,0,.19,0,0s-.11-.47,0,.19.18.84.28,1.42l-.06-.29a5.52,5.52,0,0,1-.2-1L22,36l-.31-1.78.05.32c.21,1.75-.07.92-.15.11s0-1.7-.1-1.13l-.07.61q0-.47.1-.9c-.08.59-.11.74-.2,1.24l0-.22a6.81,6.81,0,0,1,.19-1.05A9.18,9.18,0,0,0,21.19,34.54Zm1.31-.11h.07s0-.06,0,0h0C22.63,34.54,22.85,34.86,22.5,34.43ZM35.21,20.11c.36.19,0,.2,0,.29l.33-.2C35.37,20,35.29,20.11,35.21,20.11ZM26.13,38.95l.31.62-.37-.21h0ZM24.2,41.59h.25l0,.11h-.25Zm-2-3.89,0,.18,0-.18c-.06-.33,0,0,0,.16s0,.11-.18-.83c-.09-.76-.07-.7,0-.43Zm.64-2.12c.08.07.13.1.11,0a5.73,5.73,0,0,1-.57-.88c.24.35.36.34.71.84C22.71,35.09,23.57,36.7,22.88,35.58Zm3.34-4.4v.1h.53Zm1.23-.78c.69.28.81-.13,1.11-.26-.47-.42-1.23-.6-1.36-.28C26.52,29.87,27.91,30.53,27.45,30.4Zm-4.58,7.51.21.62v.13l.21.23c.15,1.21-.41-.32-.52-.54C22.82,38.35,23.41,39.67,22.87,37.92Zm6.51-9.64c.53,0,1.27-.06,1.66.28-.77-.58-1.36-.51-1.44-.4S29.53,28.26,29.38,28.28Zm1.46,1.07A4.79,4.79,0,0,1,29,28.92c-.1-.57,1,.06,1.36.39.53,0,0-.29,0-.48ZM28.4,28.12v.21c.21.4,1.08,1.06,0,.66l0-.66C28.36,28.24,28.34,28.17,28.4,28.12Zm2.13-2.8-.37-.06c.13-.12.26,0,.37.06l.31.06C30.89,25.88,30.74,25.53,30.53,25.32Zm-1.39,2.31-.37.34C29.15,28.21,29.14,27.82,29.14,27.63Zm2-1.7c-.08.2-.3.71-.3.62C30.46,26.2,30.84,25.86,31.14,25.93Zm8.22-7.17-.26.17-.35-.6Zm-2.19,2.89-.2-.29.16-.09ZM35,24.13a1.88,1.88,0,0,0-.39-.3.55.55,0,0,1-.29-.1s.15,0,.29.1.26-.21.16-.41c-.29-.18-.37,0-.6-.06-.42-.76,1.86.3,0-1.07.3.08,1,.15,1.25.53A1.21,1.21,0,0,0,35,24.13c.08.09.14.18.12.23A.73.73,0,0,1,35,24.13Zm-2.36,3.76a.34.34,0,0,1-.28,0,1.2,1.2,0,0,1-.69-.32c.38,0,.49.25.69.32A.46.46,0,0,0,32.66,27.89Zm-.35.71.59-.06-.52-.14,1.12.08C33.66,29,32.84,28.92,32.31,28.6Zm.27.38-.49-.26.53.23,0,0,.11.06-.65.36ZM27.7,34c1.45,1.27,1.46.25,2.3.65-.51-.38-1.19-1.15-1.55-.58-.21-.84,1.23.39.09-.79-.05.3-.65.3-.72.31l.13-.31C26.86,32.83,28.15,34.07,27.7,34ZM26,37.13l-.27.33.34-.23Zm-4.54,5.6c0,.36-.53.86-.51,0C21.19,42.76,21.39,43,21.48,42.74Zm-3.12-3.49.17.77c-.53.95-.31-.42-.56-.43C18.18,39,18.14,39.51,18.36,39.25Zm-2.15-2.49,0-.22-.66.78Zm-.88,1c-.41.23-.36.61-.26.63Zm-2.52-1.55.18.11.56-.73Zm1-.45c-.46.46-1.13,1-.5,1.08A5,5,0,0,1,14.48,36c0-.22-.27-.13-.37-.15,0,.15.28.05,0,.37-.31,0-.36-.15-.25-.39a1.44,1.44,0,0,0,.34-.43A1.39,1.39,0,0,0,13.82,35.8Zm1.63.8a.71.71,0,0,0,.31-.08l-.11.13c-.26.14-.25.06-.19-.05a1.83,1.83,0,0,1-.33,0c-.47.34-.56.83-.74,1.1,0-.22.36-.69,0-.61-.11.13-.21.19-.13.28L14,37.23c.4-.76.78-.69,1.17-.64a1.39,1.39,0,0,1,.36-.2C15.58,36.37,15.5,36.49,15.46,36.6ZM15,34.09l0,.22c-.12.2-.32.32-.43.45A.57.57,0,0,1,15,34.09Zm5.71,6.29c-.09.17,0,1.22.13,1.15l-.23.84a1.19,1.19,0,0,0-.25-.94C20.45,40.42,20.5,40.93,20.69,40.38Zm4.13-2.54a1,1,0,0,0,.37.33c.32.12.3-.47.5-.38,0,.25-.08.66-.27.69S25.08,38.33,24.82,37.84ZM25,36.77c.08-.1,0-.2.41.19.2.1.05-.19.26-.1.2.57-.43,0-.67-.09a.19.19,0,0,1-.1.07C24.89,36.76,24.94,36.76,25,36.77Zm-2,4.46-.25-1.17c0,.11,0,.23,0,.34C22.79,40.7,22.87,41,23,41.23Zm-1.28-2.65c0,.73-.13.56-.16.18,0,.92.13.94.22,1.15a.41.41,0,0,0,.07.2,1,1,0,0,0-.07-.2c0-.26,0-.72,0-1l0-.23-.11-.37Zm-1.91-3.19c-.36.28-.27.13-.21,0S19.82,35.21,19.76,35.39Zm2.48,3.05c-.06.38.3,1.72.28,2.14h.07c0,1-.27-1.34-.31-1.11l0-.14c-.09-1-.17-.79-.27-1.6C22,37.35,22.25,38.27,22.24,38.44ZM19.91,35c-.5.3.34-.54.38-.65C20.72,34,19.94,34.77,19.91,35Zm1.59,0v-.17l0-.53v.17Z"/><path class="cls-3" d="M15.49,39a.25.25,0,0,1-.2-.21A.49.49,0,0,1,15.49,39Z"/><path class="cls-3" d="M28.64,38.58a.41.41,0,0,1-.16-.28A.51.51,0,0,1,28.64,38.58Z"/><path class="cls-3" d="M29.46,38l0,0h0Z"/><path class="cls-3" d="M43.86,17.92c.56.49,0,.18-.14.26C43.81,18.1,43.54,17.66,43.86,17.92Z"/><path class="cls-3" d="M42.34,17.54a.73.73,0,0,0,.51.15C42.8,17.76,42.68,17.75,42.34,17.54Z"/><path class="cls-3" d="M43.17,17.31c-.06.24-.17.36-.32.38C42.93,17.59,42.84,17.31,43.17,17.31Z"/><path class="cls-3" d="M40.46,19.42c.41.23.47-.15.47-.15-.2.74.66.54.92.77C41.46,20.19,41.08,19.77,40.46,19.42Z"/><path class="cls-3" d="M39.67,19.83a.22.22,0,0,0,.07-.18C39.77,19.77,39.73,19.82,39.67,19.83Z"/><path class="cls-3" d="M39.79,20.31c-.23.08-.64-.23-1-.44-.05-.46.62,0,.86,0C39.56,19.95,39.41,20,39.79,20.31Z"/><path class="cls-3" d="M37,26.92a.32.32,0,0,1,.37.08l-.22.28C36.93,27.3,37,27,37,26.92Z"/><path class="cls-3" d="M35.1,27.12c-.22.2.45.54.23.55l-.75-.61Z"/><polygon class="cls-3" points="31.39 23.95 31.52 23.94 31.43 24 31.39 23.95"/><path class="cls-3" d="M35,28.82l1,.49A1.68,1.68,0,0,1,35,28.82Z"/><polygon class="cls-3" points="34.88 30.14 35.25 30.2 34.67 30.44 34.88 30.14"/><polygon class="cls-3" points="33.67 30.92 33.82 31.1 33.39 31.24 33.67 30.92"/><path class="cls-3" d="M23.73,43.3c-.14-.51.12-.77.17-1.07C24,43.1,23.64,42.39,23.73,43.3Z"/><path class="cls-3" d="M16.25,39.21l.38.76C16,39.8,16.51,39.84,16.25,39.21Z"/></svg>