<svg id="Layer_1" data-name="Layer 1" xmlns="http://www.w3.org/2000/svg" viewBox="0 0 55.73 55.73"><defs><style>.cls-1,.cls-5{fill:none;}.cls-1,.cls-2,.cls-3,.cls-4,.cls-5{stroke:#000;stroke-miterlimit:10;}.cls-2{fill:#fff;}.cls-4{fill:#666;}.cls-4,.cls-5{stroke-width:0.5px;}</style></defs><title>badhabit</title><rect class="cls-1" x="28.5" y="8.5" width="12.83" height="5.5" rx="2.75" ry="2.75" transform="translate(2.03 -5) rotate(8.43)"/><line class="cls-1" x1="34.41" y1="8.4" x2="33.61" y2="13.84"/><circle class="cls-1" cx="28" cy="28" r="25.5"/><rect class="cls-2" x="18.53" y="8.18" width="12.73" height="5.45" rx="2.73" ry="2.73" transform="translate(-2.26 9.8) rotate(-21.34)"/><line class="cls-1" x1="23.05" y1="8.7" x2="25.03" y2="13.78"/><rect class="cls-2" x="18.59" y="13.84" width="9.6" height="4.12" rx="2.06" ry="2.06" transform="translate(9.87 -8.94) rotate(27.24)"/><line class="cls-2" x1="23.72" y1="13.76" x2="21.84" y2="17.41"/><rect class="cls-3" x="8.49" y="22.92" width="11" height="3.67" transform="translate(5.29 -2.32) rotate(11.66)"/><rect class="cls-2" x="19.16" y="26.16" width="21.08" height="3.67" transform="translate(6.27 -5.42) rotate(11.66)"/><rect class="cls-1" x="40" y="28.48" width="1.83" height="3.67" transform="matrix(0.98, 0.2, -0.2, 0.98, 6.97, -7.64)"/><line class="cls-1" x1="40.95" y1="25.64" x2="38.28" y2="20.41"/><line class="cls-1" x1="43.3" y1="23.32" x2="43.88" y2="15.95"/><line class="cls-1" x1="44.72" y1="25.48" x2="48.53" y2="20.65"/><line class="cls-1" x1="10.5" y1="10.5" x2="46.5" y2="46.5"/><rect class="cls-2" x="13.5" y="36.33" width="20.68" height="11.67" rx="3" ry="3"/><rect class="cls-4" x="15.09" y="37.39" width="13.26" height="9.55" rx="3" ry="3"/><circle class="cls-3" cx="31.27" cy="40.31" r="1.33"/><circle class="cls-3" cx="31.27" cy="44.55" r="1.33"/><line class="cls-5" x1="17.74" y1="36.33" x2="15.62" y2="30.5"/><line class="cls-5" x1="18.27" y1="30.5" x2="17.74" y2="36.33"/></svg>