<svg id="Layer_1" data-name="Layer 1" xmlns="http://www.w3.org/2000/svg" viewBox="0 0 55.73 55.73"><defs><style>.cls-1{fill:#6779ad;stroke:#000;stroke-miterlimit:10;}.cls-2{opacity:0.63;}.cls-3{fill:#1a1a1a;}.cls-4{fill:#fff;}</style></defs><title>exercise</title><circle class="cls-1" cx="27.5" cy="28.5" r="25"/><g class="cls-2"><rect class="cls-3" x="25.43" y="8.12" width="3.64" height="38.74" transform="translate(-11.42 25.65) rotate(-42.52)"/><path class="cls-4" d="M42.74,39.48,16.55,10.93a1.53,1.53,0,0,0-2.12,0l-2.68,2.46a1.53,1.53,0,0,0,0,2.12L37.94,44.06a1.53,1.53,0,0,0,2.12,0l2.68-2.46c1.43-1.31-.7-3.42-2.12-2.12l-2.68,2.46h2.12L13.87,13.38V15.5L16.55,13H14.43L40.62,41.6C41.93,43,44,40.9,42.74,39.48Z"/></g><path d="M11.65,21.93,10.43,20.6v2.12l13.3-12.2H21.61l1.22,1.33V9.73L9.53,21.93c-1.43,1.31.7,3.42,2.12,2.12L25,11.86a1.53,1.53,0,0,0,0-2.12L23.73,8.4a1.53,1.53,0,0,0-2.12,0L8.31,20.6a1.53,1.53,0,0,0,0,2.12l1.22,1.33C10.84,25.48,13,23.35,11.65,21.93Z"/><path d="M32.39,44.55l-1.22-1.33v2.12l13.3-12.2H42.35l1.22,1.33V32.35l-13.3,12.2c-1.43,1.31.7,3.42,2.12,2.12l13.3-12.2a1.53,1.53,0,0,0,0-2.12L44.47,31a1.53,1.53,0,0,0-2.12,0L29,43.22a1.53,1.53,0,0,0,0,2.12l1.22,1.33C31.57,48.09,33.69,46,32.39,44.55Z"/><path d="M11.15,28,9.93,26.65v2.12l20-18.3H27.77L29,11.8V9.68L9,28c-1.43,1.31.7,3.42,2.12,2.12l20-18.3a1.53,1.53,0,0,0,0-2.12L29.89,8.35a1.53,1.53,0,0,0-2.12,0l-20,18.3a1.53,1.53,0,0,0,0,2.12L9,30.1C10.34,31.53,12.46,29.4,11.15,28Z"/><path d="M26.23,44.6,25,43.27v2.12L45,27.1H42.85l1.22,1.33V26.3l-20,18.3c-1.43,1.31.7,3.42,2.12,2.12l20-18.3a1.53,1.53,0,0,0,0-2.12L45,25a1.53,1.53,0,0,0-2.12,0l-20,18.3a1.53,1.53,0,0,0,0,2.12l1.22,1.33C25.42,48.15,27.54,46,26.23,44.6Z"/></svg>