<svg id="Layer_1" data-name="Layer 1" xmlns="http://www.w3.org/2000/svg" viewBox="0 0 55.73 55.73"><defs><style>.cls-1{fill:none;stroke:#000;stroke-miterlimit:10;}.cls-2{opacity:0.63;}.cls-3{fill:#fff;}</style></defs><title>exercise</title><circle class="cls-1" cx="27.5" cy="27.5" r="25"/><g class="cls-2"><rect class="cls-3" x="26.43" y="8.12" width="3.64" height="38.74" transform="translate(-11.15 26.32) rotate(-42.52)"/><path d="M43.11,40.29,16.93,11.74a6.5,6.5,0,0,0-.87.5c-.62.57-2.66,1.93-2.54,2.61s1.67,1.82,2.09,2.28l9,9.84L39.57,43.25a6.5,6.5,0,0,0,.87-.5l2.68-2.46c-.24.22-.63.28-.87.5l-2.68,2.46.87-.5L25.5,26.46l-9-9.84c-.42-.46-2-1.64-2.09-2.28s1.92-2,2.54-2.61l-.87.5L42.25,40.79C42.3,40.85,43.07,40.24,43.11,40.29Z"/></g><path d="M12.65,21.93,11.43,20.6v2.12l13.3-12.2H22.61l1.22,1.33V9.73l-13.3,12.2c-1.43,1.31.7,3.42,2.12,2.12L26,11.86a1.53,1.53,0,0,0,0-2.12L24.73,8.4a1.53,1.53,0,0,0-2.12,0L9.31,20.6a1.53,1.53,0,0,0,0,2.12l1.22,1.33C11.84,25.48,14,23.35,12.65,21.93Z"/><path d="M33.39,44.55l-1.22-1.33v2.12l13.3-12.2H43.35l1.22,1.33V32.35l-13.3,12.2c-1.43,1.31.7,3.42,2.12,2.12l13.3-12.2a1.53,1.53,0,0,0,0-2.12L45.47,31a1.53,1.53,0,0,0-2.12,0L30,43.22a1.53,1.53,0,0,0,0,2.12l1.22,1.33C32.57,48.09,34.69,46,33.39,44.55Z"/><path d="M12.15,28l-1.22-1.33v2.12l20-18.3H28.77L30,11.8V9.68L10,28c-1.43,1.31.7,3.42,2.12,2.12l20-18.3a1.53,1.53,0,0,0,0-2.12L30.89,8.35a1.53,1.53,0,0,0-2.12,0l-20,18.3a1.53,1.53,0,0,0,0,2.12L10,30.1C11.34,31.53,13.46,29.4,12.15,28Z"/><path d="M27.23,44.6,26,43.27v2.12L46,27.1H43.85l1.22,1.33V26.3l-20,18.3c-1.43,1.31.7,3.42,2.12,2.12l20-18.3a1.53,1.53,0,0,0,0-2.12L46,25a1.53,1.53,0,0,0-2.12,0l-20,18.3a1.53,1.53,0,0,0,0,2.12l1.22,1.33C26.42,48.15,28.54,46,27.23,44.6Z"/></svg>