<svg id="Layer_1" data-name="Layer 1" xmlns="http://www.w3.org/2000/svg" viewBox="0 0 55.73 55.73"><defs><style>.cls-1{fill:#fff;}.cls-2{fill:#202020;}.cls-3{fill:#52be61;}</style></defs><title>goodx</title><circle class="cls-1" cx="28" cy="28" r="25"/><path class="cls-2" d="M52.83,27.5c.09.08.29,0,.23-.19l-.34-.16Z"/><path class="cls-2" d="M53.37,26c-.17-.26-.47-.54-.76-.35.33.24.2.31.59.57.05.23-.09.4-.21.37.09.08-.05.35.16.47a.88.88,0,0,0,0-1.06C53.22,25.87,53.31,25.94,53.37,26Z"/><path class="cls-2" d="M42.94,6.7l.1.12A.4.4,0,0,0,42.94,6.7Z"/><path class="cls-2" d="M29.71,1.94c.11,0,.16,0,.16-.06S29.69,1.91,29.71,1.94Z"/><path class="cls-2" d="M27.27,1.53l.15,0C27.36,1.51,27.3,1.5,27.27,1.53Z"/><path class="cls-2" d="M42.94,6.7l-.25-.31C42.61,6.46,42.8,6.57,42.94,6.7Z"/><path class="cls-2" d="M52.21,23a.51.51,0,0,0,.12.18L52.26,23Z"/><path class="cls-2" d="M47.81,10.66l.08.09.17,0Z"/><path class="cls-2" d="M50.7,14.55c0-.1-.31,0-.44,0a.35.35,0,0,1,.29.1A.45.45,0,0,0,50.7,14.55Z"/><path class="cls-2" d="M53.1,21.78l.07.12Z"/><path class="cls-2" d="M45.38,8.18a.23.23,0,0,0,0-.11A.16.16,0,0,0,45.38,8.18Z"/><path class="cls-2" d="M51.59,32.63h0S51.61,32.6,51.59,32.63Z"/><path class="cls-2" d="M53.57,27.5v.08l.16,0Z"/><path class="cls-2" d="M22.71,1.65h0C22.84,1.6,22.78,1.62,22.71,1.65Z"/><path class="cls-2" d="M2,33.09c.13-.51.51.67.6-.08C2.47,33.11,2,32.49,2,33.09Z"/><path class="cls-2" d="M52.23,22.91c0-.06,0-.12,0-.18A.54.54,0,0,0,52.23,22.91Z"/><path class="cls-2" d="M2.56,33h0v0Z"/><path class="cls-2" d="M13.08,5.77a.38.38,0,0,0,.16,0S13.18,5.78,13.08,5.77Z"/><path class="cls-2" d="M20.26,2.84l-.19,0Z"/><path class="cls-2" d="M10.16,8.58c-.09.05-.14,0-.22.17H10C10,8.68,10,8.62,10.16,8.58Z"/><path class="cls-2" d="M7.31,11.61l.09,0,.07-.11Z"/><path class="cls-2" d="M46.47,43a.87.87,0,0,1,.31,0C46.59,42.91,46.92,42.45,46.47,43Z"/><path class="cls-2" d="M52.37,23a.15.15,0,0,1-.14-.09l0,.13A.1.1,0,0,0,52.37,23Z"/><path class="cls-2" d="M11.53,10.32l-.48.37A4,4,0,0,0,11.53,10.32Z"/><path class="cls-2" d="M21.33,50.43h.15A.18.18,0,0,0,21.33,50.43Z"/><path class="cls-2" d="M9.85,12a.91.91,0,0,0-.38.12.24.24,0,0,0,0,.1Z"/><path class="cls-2" d="M46.79,43h0Z"/><path class="cls-2" d="M48.58,39.35c-.31.48.17.42.28.64-.28.65-.4.13-.68.22-.13.42-.06.88-.27,1.13-.06,0-.12,0-.14-.08-.05.54-.8,1.1-.87,1.74a.22.22,0,0,1-.12,0,1,1,0,0,1,.44.27c-.18.2-.17.52-.42.44.12-.12.05-.19,0-.3l-.11.28c-.43,0,.17-.36,0-.53-.28.47-.51,1.14-.86,1.38-.3-.18.58-.79,0-.6l.53-.38c-.73,0,.29-.26-.44-.32-.65.52-.47.83-1.17,1.31,0,.26.24.16.23.42-.68,1.05-1.26,0-1.62.9,0,.31.15.7-.49.89l-.06-.43c-.67.44,0,.72-.89,1,0-.22.44-.48.32-.45-.62.07-.19.41-.54.66l-.26-.24c-.72.46-1.37,1.23-2.23,1.68,0-.11.1-.28-.15-.28a7.57,7.57,0,0,1-1.7.81c-.62.16-1.25.28-1.82.38l-.33.43c-.1,0-.22-.08-.13-.16-.47,0,0,.18-.15.35s-.38-.08-.24-.2A8.56,8.56,0,0,1,33.3,51a3,3,0,0,1-1.58.17l.15-.11c-.66,0-.66.71-1.3.53l.11-.07c-1.43,0-3,.33-4.1-.22-.24.42-1.39-.25-1.54.28a5.79,5.79,0,0,0-1.62-.84c-.29-.06-.52.28-.9.25l.06-.3-.57.19-.18-.42h-.36c.13.05.26.21.21.29-.58,0-1.25-.55-1.21-.72l-1.31-.2c.07-.11.29-.07.48-.09-.76.06,0-.35-.7-.29.05.09-.11.16-.15.21a3.69,3.69,0,0,0-1.4-.75l.18-.15c-.86-.42-1.84-.84-2.77-1.4.28.28,0,.55-.29.41l.07-.34c-.29.06.22.28-.28.26-.33-.25,0-.45.23-.42a4.46,4.46,0,0,1-.47-.19c0-.1.15-.07.25-.16-.28,0-.49-.76-.93-.65l0-.09a24,24,0,0,1-2-1.46c-.2.2-.42-.08-.78-.09a14.26,14.26,0,0,0-1.27-1.78c-.48-.31-.29,0-.58,0,.17-.2-.32-.81.07-.6-.3-.36-.49-.59-.72-.83s-.5-.49-.89-1c0,.17,0,.32-.09.3s-.17-.48-.05-.52l.05,0c-1.1-.95-.85-3-1.74-3.77l0,0-.64-.93c-.14-.49.29.22.31-.19A2.49,2.49,0,0,1,4.55,34a3.53,3.53,0,0,0-.4-1.29,2.63,2.63,0,0,0,0-1.78c-.08-.34-.17-.69-.21-1A2.19,2.19,0,0,1,4.07,29l-.17.07c-.19-.25.09-.32.12-.52-.14,0-.15.29-.25.13a10.41,10.41,0,0,1,.12-3.42c.11-.57.29-1.13.43-1.69l.22-.83.29-.8c.26-.78-.77-.7-.09-1.6.07.13.16.26.23.39a9,9,0,0,1,.7-2.46,14.71,14.71,0,0,0,1-2.33c0,.12.1.17,0,.31.39-.18.69-1.08.52-1.2.15-.21.18,0,.35,0s.19-.92.52-.93c.05,0,0,.12,0,.18,0-.25.67-.82.31-.81.49-.4.6-1,1.08-1.3,0-.44.83-.68.58-1.05.3.34,1-.55,1.17-.94,0,.19.35-.12.36.12.33-.3.58-.64.37-.76.93-.16,1.06-1.37,1.83-1.1.23-.24.46-.49.7-.71l.75-.61A10.92,10.92,0,0,1,16.75,6c.08.22-.22.35-.49.52s-.53.35-.39.54c.43-.39.77-.71,1.13-1a4.33,4.33,0,0,1,1.28-.74c.29-.07-.08.25-.13.36A5.9,5.9,0,0,1,19.67,5a13,13,0,0,0,1.45-.61s-.09.11-.18.17c.19-.06.47,0,.39-.24l-.18.1c-.4-.21.62-.8.62-1-.19.66,1-.11.66.75.12-.07.26-.21.2-.33.2,0,.28.05.12.26.67-.28.39-.41,1-.52,0,.1-.11.16-.16.28a1.67,1.67,0,0,1,1.16-.48c0,.06,0,.13-.12.16a7.13,7.13,0,0,1,2.65-.54c-.3.45.36.12.42.49a3.71,3.71,0,0,1,.56-.11l-.22-.19c.49,0,.94-.22,1.36-.08l-.38.14.93,0-.52-.17c.52-.17,0-.47.64-.34-.14,0,.51,0,.74.29h0a1.17,1.17,0,0,1,.89,0c.08.13-.14.4-.09.48.29-.27,1.16.07,1.53-.18a.29.29,0,0,0-.14.29l.25-.2c.21.14.23.18.16.33.66.21-.11-.52.65-.11-.07,0,0,0-.19.05.77.31,1.61.21,2.28.62.09.43-.65-.14-.51.25.52.15,1.08.23,1.65.34a4.9,4.9,0,0,1,1.55.56l-.16-.12c.36-.41.6.57,1.2.58-.14,0-.29.19-.23.15a12.52,12.52,0,0,0,2.37,1.06l-.19,0c.28.34.87.72,1.21,1,.19,0,.39.15.38-.11a3.47,3.47,0,0,0,1.47,1.45,5.84,5.84,0,0,1,.82.56,2,2,0,0,1,.51.84c-.1-.11-.33-.18-.25-.09l.82.7c.12-.22,0-.2,0-.48a1.15,1.15,0,0,1,.67.37c-.45-.26-.28.25-.24.48,0-.07.14-.07.18-.13,0,.71.42-.22.68.58l-.12,0c.22.19.52.31.68.58-.14.26-.29-.17-.48-.06.26.34,1,.38.94.88a4.65,4.65,0,0,0-.49-.44,1.41,1.41,0,0,0,.22.82v0l.27.7,0-.2c.86.11.73.85,1.45,1.31-.7-.44-.27,0-.56.1,0,.21,0,.5-.06.47.37.2.08.6.61.88-.08.06.15.33-.1.37.27.37.11-.16.24-.18.63.49.21,1.65,1,2.42.43.76.76.84,1.14,1.59-.08.3-.4-.13-.4-.13a2.08,2.08,0,0,0,.28,1.15c-.1-.07-.15,0-.24.18.08.32.38.15.31.61a1.37,1.37,0,0,1-.44-.26c.15.36.39.71.54,1.1-.15.13-.29-.21-.42-.33.14.43.35,1.13.6,1.25,0-.1.06-.2.08-.3,0,.16-.22.11-.28,0-.27-.36,0-.56.1-.6l.11.28c.52-.37-.27-1.14-.33-1.71l.45.16-.43-.53c.07-.14.29-.28.41,0,.11-.46-.23-.33-.1-.74,0,0,0,0,.07,0l-.23-.37c.11.06.27-.14.27.12,0-.79-.61-1.09-.38-1.45l0,.05c-.46-.95-.32,0-.92-.62l.53-.74H52.1c0-.1-.08-.31,0-.32-.33-.3-.1.11-.36,0,.1-.6-.67-1.24-.28-1.55-.29-.07.05.52-.33.09.4-.37-.36-.53-.35-1.06.3,0,.38.48.38-.06-.27,0-.34-.24-.39-.49a1.65,1.65,0,0,0-.25-.67c-.32.17-.59-.66-1-1.17.16-.05-.59-1.12-.86-1.71l.06,0c-.37.14-.68-.44-1.07-.72.18-.13.3-.13.55,0l-.3-.33a.81.81,0,0,1-.53-.24l.28-.1a8.39,8.39,0,0,1-1.46-1.31c-.2.16-.05.91-.75.51.07-.12.21-.31.41-.22-.06,0-.26-.08-.32-.21l.4,0c-.19-.3-.27,0-.45-.17.14-.14-.06-.24.08-.33s.12.22.26.23a1.49,1.49,0,0,1-.41-.77.22.22,0,0,1-.36.07c-.45-.38,0-.32-.19-.62-.19,0-.42-.32-.6-.1-.14-.1-.08-.23-.09-.33-.33-.08-1.18-.82-1.08-.36l.05.06,0,0h0a2.78,2.78,0,0,1-.67-.36,6.35,6.35,0,0,1-.63-.44,6.22,6.22,0,0,0-1.27-.85l0-.09a6.85,6.85,0,0,0-1.68-.5c-.16-.07-.3-.34-.18-.42A2.45,2.45,0,0,1,37.6,3.8c.49,0-.09-.2.49,0-.52-.28-.6-.47-1.29-.43.29-.16-.32-.45-.61-.48l.33.31a5.44,5.44,0,0,1-.82-.29L36,2.67C34.86,2,33.67,2.76,32.9,2c-.36.18.62.26.29.48-.53-.13-1-.68-1.21-.71-.75-.29-.77.35-1.55.16.09.12.15.44-.44.53-.54-.07-.65-.53-.29-.61.13,0,.2,0,.19.08.18,0,.42-.07.21-.21L30,1.78c-.27-.13-1-.16-.85-.35-.43.09-.19.19.12.26a8.44,8.44,0,0,0-1.86-.15c.12.06.23.19.11.2-1.09-.09-.47.25-1.19.34-.42-.16.12-.44-.61-.25-.46-.1-.12-.31.05-.41a4,4,0,0,1-1.68,0l.35-.15a2.1,2.1,0,0,1-.56.14l.24.2c-.21,0-.39,0-.4-.08-.19.19.22.37-.16.64-.3-.07-.81.24-1,0,.89,0-.16-.3.57-.47a1.22,1.22,0,0,1-.53.07s0-.07.07-.09c-.89-.09-.31.44-1.16.64.07-.2-.28-.28-.41-.2.35-.08.24.25,0,.46-.58,0-.56.25-.84.3l.34,0c-.06.2-.34.23-.68.42-.07-.12.3-.21.15-.22-.3.44-1,0-1.51.42-.3,0-.14-.3-.41-.3-.56.43-.78,0-1.36.52.29.13.29.06-.06.49l1-.65-.54.63c.32-.14.6-.46.82-.48-.26.3-.24.23,0,.36-.58-.14-.77.59-1.36.6l-.24-.54a2.13,2.13,0,0,0-1.07.55,3.71,3.71,0,0,1-1.13.81l.35-.09c0,.28-.56.37-.81.63-.08-.18-.31-.13-.5-.16.09.09-.66.46-.51.83l-.54.07c-.77.45-.49,1-1.13,1.51,0-.33-.33-.18,0-.68-.21.19-.43.33-.34.43-.21,0-.4.72-.72.75,0,.14.08.32-.16.51-.05,0-.07-.07-.07-.07s-.27.42.08.4a2.44,2.44,0,0,0-1.29,1,3.32,3.32,0,0,1-1.16,1c-.32.53-.71,1.15-1,1.59,0-.06-.08-.06,0-.13-.57.53.22.71-.41,1.32-.5.21.09-.48-.15-.31-.61-.24-.49.93-1.1,1.25l0-.15c-.4.3-.27,1.1-.63,1.73,0,0,0-.06-.09,0A8.58,8.58,0,0,1,3.71,19c-.16-.29,0-.34-.3-.31-.08.31.42.06.27.66-.2.14-.48.52-.75.5l.19-.56c-.46.17-.25.73-.38,1l-.14-.08c-.19.9.19,1-.08,1.94l.14-.07c.25.59-.3.39-.11,1l-.41.09c0,.37.17,1.27.18,1.89a5,5,0,0,1-.39-1.61c-.06.35-.15,1.19,0,1.39,0-.14-.09-.33,0-.46a3.39,3.39,0,0,1,.32,1.71c-.76-.16-.31,1.79-.81,2.31a6.6,6.6,0,0,1,.16,1.88,15.52,15.52,0,0,0,.19,2c.51-.62.08.42.67.21.1.32.14.44.1.48l-.1,1.07c-.11.28-.21-.28-.34-.21.14.73-.17.37-.2.9.18-.16.37.17.4.6l.12-.66c.56.9-.2,1,.45,1.91l-.3-.25c.15.24.32.71.54,1.16a2,2,0,0,0,.88,1c0,.11-.12.3-.26.11a6.92,6.92,0,0,0,1.11,1.72,4.44,4.44,0,0,1,1,1.53H5.66c.16.18.45.2.51.52-.06,0-.18,0-.12.1s.6.35.72.66L6.48,43a3.09,3.09,0,0,0,1.07,1.15,7.15,7.15,0,0,1,1.22.78c-.31.28.22,1.15.56,1.51l-.06,0a8.1,8.1,0,0,0,1.59,1.17c.55.29,1.13.51,1.71.84a2.33,2.33,0,0,0,.52.68,9.78,9.78,0,0,0,.89.62c.65.42,1.37.86,1.93,1.24-.15-.16.18-.29.42-.23.25.22.91.09.7.44l-.1-.06c.05.46.69.66,1.17.82l.27-.46a3.45,3.45,0,0,0,2.11,1c.79.12,1.5.2,1.78.63a8.53,8.53,0,0,0,1.06-.07l-.07.28a9.67,9.67,0,0,0,2.41.36l-.24.19c.63.05.85-.77,1.4-.76l.15.43a6.84,6.84,0,0,0,3.22-.08.23.23,0,0,1-.21.21c.51,0,2,.06,1.73-.48.06.37,1.11-.12,1.64-.38l0,.29c.4-.46.4-.57,1-.82.16,0,.19.18,0,.17.55,0,.34-.36,1-.37l-.19.23c.54-.12.48-.18.7-.48s1-.28,1.16-.07a.67.67,0,0,1,.56-.5c.08.07,0,.17-.06.22.95-.11,1.13-.83,1.81-.83a.2.2,0,0,0,.17.1,10.42,10.42,0,0,1-1.16.5c.1.24.66,0,.37.55.37-.39.93-1.12,1.5-1.25a.33.33,0,0,1,.11,0l0,.05a.65.65,0,0,0,.31-.19,1.61,1.61,0,0,0,.46-.17c.16.15.65-.25.91-.4-.17-.23.19-.39-.24-.4.05,0,0,.06-.19.17a.49.49,0,0,0-.09.09v0l-.62.39a.77.77,0,0,1,.64-.5c0-.23.08-.48.12-.6.54.13,1.33-.08,1.55,0,.63-.68,1.7-1.33,1.76-2.12.14-.22.32-.08.44-.08-.08.14-.21.25-.22.36.3-.44,1.1-1.05.94-1.4.59-.31,0,.49.58-.15v.16A3.48,3.48,0,0,0,48,44a3.65,3.65,0,0,1,1.47-1.95c-.12.08-.18.12-.24.1a5.88,5.88,0,0,0,1-1.33,12.47,12.47,0,0,0,.8-1.48,22.1,22.1,0,0,1,1.52-3c.32-.54.12-.69.08-1.09l.33,0c0-.24-.11-.48-.16-.72a2,2,0,0,1,.53-1.17A1.55,1.55,0,0,0,53.72,32l-.22.11c.1-.4.08-1.3.3-1.2,0,0-.19-.16-.06-.31h.16a6.55,6.55,0,0,0-.17-1c.15-.77.62.17.71-1,0-.44-.4-1.23-.51-1.07s-.12.43-.28.44l-.06-.38c-.46-.08-.92-.34-1.3.54l.25.63-.24.19v-.52c-.23.29,0,.48.07.7a.42.42,0,0,0-.26.24c.14.21.28.43.41.65-.19.05-.32-.31-.48.08.16.31.45-.23.51.26-.26.27-.41.16-.29.53-.13,0-.19-.05-.22-.2.09.33-.07.82.15,1a1.05,1.05,0,0,0-.21.61c-.06.21-.13.38-.34.31a1.72,1.72,0,0,1,.14.89c-.38-.64-.3,1-.81.73.36.51-.27,1.36-.25,2.1,0-.05-.07-.15,0-.2a1.83,1.83,0,0,1-.52.59c.34.2.15.78.23,1.18-.55.26-.29-.46-.68-.48.3.11-.07.87.23.85-.37.22-.24.23-.61.24.41.29-.07.34,0,.74-.49.32-.47-.12-.64.44C48.47,39.87,48.58,39.35,48.58,39.35Zm-9.31,9.72h0l.25-.14Zm-1.05.5.46-.21a.13.13,0,0,1,0,.23C38.69,49.51,38.41,49.57,38.22,49.57Zm3.16.58c-.15.14-.24.12-.29.09l.28-.21v0A.36.36,0,0,1,41.38,50.15Z"/><path class="cls-2" d="M41.5,49.65l.06-.06h-.13l0,.11Z"/><path class="cls-2" d="M43.05,6.84l0,0a.15.15,0,0,1,0,.06A.21.21,0,0,1,43.05,6.84Z"/><polygon class="cls-2" points="22.59 50.6 22.58 50.67 22.69 50.64 22.59 50.6"/><path class="cls-2" d="M47.27,12a.17.17,0,0,0,0,.11A.22.22,0,0,0,47.27,12Z"/><path class="cls-2" d="M48.88,14.25l.12.39A2.46,2.46,0,0,0,48.88,14.25Z"/><path class="cls-2" d="M49.86,16.14l.12,0h0Z"/><path class="cls-2" d="M20.94,4.6l-.08,0C20.7,4.73,20.82,4.68,20.94,4.6Z"/><path class="cls-2" d="M30.87,3.1a2.47,2.47,0,0,1-.34.09C30.71,3.22,30.85,3.25,30.87,3.1Z"/><polygon class="cls-2" points="11.59 10.28 11.58 10.28 11.53 10.32 11.59 10.28"/><path class="cls-2" d="M30.06,3.15a.8.8,0,0,0,.47,0A1.22,1.22,0,0,0,30.06,3.15Z"/><path class="cls-2" d="M52.48,24.91V25h0Z"/><path class="cls-2" d="M52.53,25l0,.11C52.56,25.08,52.56,25,52.53,25Z"/><path class="cls-2" d="M52.65,25.36l-.08-.23C52.57,25.21,52.57,25.31,52.65,25.36Z"/><path class="cls-2" d="M52.12,22.12H52A.18.18,0,0,0,52.12,22.12Z"/><path class="cls-2" d="M51.87,21.3c0,.2-.08.55.05.81H52C51.83,22,52.09,21.45,51.87,21.3Z"/><path class="cls-2" d="M51.86,17.42a7.36,7.36,0,0,1,.2.73c.05-.16.13-.38.27-.07C52.3,17.06,52.2,18.35,51.86,17.42Z"/><path class="cls-2" d="M51,15.25c.23.34.14-.08.2-.09C50.94,15,50.89,14.94,51,15.25Z"/><path class="cls-2" d="M38.56,4.06l.14-.22C38.4,3.74,38.66,3.93,38.56,4.06Z"/><path class="cls-2" d="M35.14,4.21l.23.23.2-.18A3,3,0,0,0,35.14,4.21Z"/><polygon class="cls-2" points="33.76 1.99 33.9 1.99 33.37 1.95 33.76 1.99"/><path class="cls-2" d="M7.57,10.86l.31.13C8,10.8,7.74,10.54,7.57,10.86Z"/><path class="cls-2" d="M2.37,22.05a.53.53,0,0,0-.24.66C2.19,22.44,2.37,22.2,2.37,22.05Z"/><polygon class="cls-2" points="18.84 52.13 18.56 52.14 19.04 52.22 18.84 52.13"/><path class="cls-3" d="M13.25,14.47c-.15-.06-.13.24-.15,0C13.2,14.41,13.28,14.37,13.25,14.47Z"/><path class="cls-3" d="M41.08,42.54c-.87.2-.77-.78-1.48-.81-.07,0,.31-.28.14-.31-.77.06-1.09-.75-1.2-1.5l.11-.06c0-.14-.4,0-.45-.09s.11-.05.16-.15c-.19.14-.24-.08-.4,0,0-.1.17-.23.19-.35l-.24.14c-.59.31-.31-.37-.73-.33.05,0,.11-.05.13-.11-.58,0-.91-.46-1.35-.7a1,1,0,0,0,.27-.26.42.42,0,0,1-.5.08c.16-.25-.34,0-.34-.19l.06,0c-.29.14,0-.24-.32,0l.11-.21c-.33.26,0-.26-.18-.18l-.06.06c-.13,0,0-.17-.13-.18l0,0c-.21-.06-.13-.3-.35-.07.13-.23.21,0,.4-.29a3.86,3.86,0,0,1-1.53-1.15.72.72,0,0,1,.11-.3c-.09,0-.21-.13-.36-.05,0,0,.09-.14.07-.18s-.34.16-.32,0A.47.47,0,0,0,33.2,35c-.25.1-.33,0-.47-.06a.35.35,0,0,0,.16-.1c-.3.1-.14-.22-.35-.18l.16-.1c0-.3-.31.23-.34,0,.07,0,.11-.07.17-.12-.35.13-.45-.13-.64-.16l.06,0c-.15-.09-.2-.29-.44-.32,0-.11.34-.3.16-.38-.26.27-.33-.11-.55.26-.07-.15-.14-.42-.3-.41.15-.05.27-.37.38-.31l.09-.23c.12-.1,0,.11.15,0-.06,0-.29-.06-.29-.15-.25.08-.62.3-.79.2.17,0,.25-.33.34-.33l-.69.31c-.06,0,.2-.22.06-.21a.55.55,0,0,1-.21.12s-.25-.12,0-.4c.08-.12.13,0,.17-.12s-.18,0-.27-.08l0,0c0-.09-.27-.05-.36.15,0,0,.14-.17.12,0a.32.32,0,0,1-.42,0c.07,0,.14-.09.22-.15a1.28,1.28,0,0,1-.71,0c-.12.12.27-.18.22-.09,0-.33-.58-.09-.46-.48,0,0-.16.19-.13.15s.12-.27,0-.25c.1-.11-.1,0-.18-.05s0-.06.09,0c-.16,0-.61-.11-.63-.43-.07.07-.36.15-.39.1l.18-.15c.06-.13-.14-.12,0-.26-.28.11.49.15.22.19.11-.16-.41.1-.17-.09-.08-.07-.34,0-.26-.19,0,0,.29-.16.21-.21s-.11,0-.25,0H27c-.16.15-.08-.12-.21.1.12-.14-.24-.08,0-.33l.22-.19c-.06,0-.29.14-.42.19a.39.39,0,0,1,.08-.11c-.32.31-.09-.14-.39,0,0-.21-.24-.26-.1-.51-.17,0-.36.06-.38-.09a.23.23,0,0,0,.15-.06c0-.15-.06-.08-.16-.08.06,0,.07-.29.12-.47-.17,0-.31.21-.43.31.24-.38-.42,0-.22-.38.07,0,.26,0,.28-.18.24-.38-.37.09-.33-.17l-.23.29c.11-.21-.32,0,0-.27-.13.06,0-.22-.29,0,0-.4-.58-.32-.24-.89-.07,0-.09-.09-.21,0s.16,0,.08.07-.11,0-.14.08,0-.18.24-.33c0-.28-.56.3-.62,0,.11-.1.14-.15.07-.18l-.27.09c-.06-.15.18-.3.35-.48-.09,0-.15-.1-.3,0l.15-.29c-.11.21-.15.06-.22.08l.07,0c.06-.08,0-.1-.1-.11a.35.35,0,0,0-.07.3c-.11,0-.13,0-.26,0,.19-.16,0-.21,0-.28s-.21.1-.22.08-.07-.1.1-.18,0,.13.06.08.19-.25,0-.21-.33.35-.32.15a1.39,1.39,0,0,0,.23-.12v-.18l-.16.15c0-.05,0-.06.06-.08-.19.14-.19-.09-.4.07-.06,0,0-.21,0-.27h0c0-.15-.1-.16-.25-.1l0,0s-.11-.09-.24,0c0-.2.57-.62.29-.51-.08-.07-.41.17-.48.3,0-.25-.45-.15-.33-.52-.08,0-.11.1-.19.09-.14-.27-.62-.24-.47-.72.13,0,.16-.15.25-.24-.19.09.09-.21-.17,0s-.21.21-.21.33c-.2,0-.38-.23-.32-.43a.19.19,0,0,1-.17.13c.24-.22.18-.34,0-.33l-.15.13.1-.19c-.07,0-.32.26-.25.06a1,1,0,0,0,.13-.17c-.18,0-.47.13-.43-.06l.14-.26c-.05,0-.23.06-.23.17,0-.25-.08-.35.06-.57a1,1,0,0,1-1.22-.4l.11-.1c0-.17-.22.14-.19,0s.16-.27.34-.33c0-.21-.31.05-.42,0s.14,0,0,.13,0-.24-.25-.05a1.23,1.23,0,0,1,.32-.31l-.16,0c.17-.32.6-.26.82-.63l-.09,0c.16-.27.39-.09.32-.31a1,1,0,0,0-.55.43c-.18-.07-.55.43-.67.28.08-.16.14.08.28-.11s-.22,0-.22-.15c0,.14-.28.3-.35.29,0-.17.24-.15.16-.27-.14.1-.32.1-.32.26-.3.23,0-.18-.29,0,.16-.22.54-.34.53-.54-.17.2-.38.11-.6.44a.6.6,0,0,1,.29-.32c.05-.17-.48.18-.14-.2l-.21.17c0-.08.06-.15.13-.28s-.43.08-.14-.2c0,0-.16-.12-.3.12s.23-.05,0,.25c.16-.27-.14-.08-.25-.05l.1-.12c-.07,0-.11-.07-.24,0a.29.29,0,0,0,.15-.17l-.19.14c-.19,0,.27-.32.11-.37l.21,0s.07-.18,0-.18l-.52.38c-.12,0,.14-.2-.07-.1l.26-.11c.06,0,.2-.3.12-.38s-.4.14-.4.3c0,0,0-.18.14-.26-.14,0-.15.17-.32.19.07-.13.12-.37.2-.58l.33-.17-.05-.06c.27-.13.12-.19.37-.36,0-.07-.12,0-.21,0-.24.45-.59.35-.87.69-.23-.06.67-.85,0-.51-.06.11-.37.27-.18.27-.06-.13-.37.25-.35,0,.21,0,.23-.4.53-.47-.11.1,0,.14,0,.13s.32-.31.23-.4-.17-.1-.32.08.11.07-.11.21c-.18-.05.08-.34-.29-.07.1,0-.07.25-.19.37h-.16l.13-.1c0-.22-.25.18-.35,0l.17-.3c.23-.17.1.28.4-.08-.07-.1-.27,0-.26-.12h.12s.39-.51,0-.37c-.16,0-.13.1-.26.22-.17-.1-.34,0-.44-.08.26-.22-.13-.18.21-.33-.1.18.11.37.39.18.24-.33.07.15.38-.11-.1-.11.18-.39.35-.59,0,0-.12,0-.17,0s-.14.2-.32.38c-.07-.17-.29-.19-.52-.08,0-.13.23-.29.29-.25a.88.88,0,0,1-.41-.46c-.19.37-.22-.08-.39.21a.64.64,0,0,1-.3.49c0-.06.13-.12.17-.2-.21.1.16-.34-.14-.15.22,0,.37-.32.61-.52-.22,0,.16-.15.07-.25a1.27,1.27,0,0,1-.58,0c.08-.34-.33-.34-.45-.44.05-.17.34-.38.32-.49s-.21.33-.21.1l.06,0c-.09,0,0-.38-.44-.06L13.6,16s-.08,0-.13,0,.14-.19.24-.22c.12-.26-.18-.12-.26-.19l-.11.21c-.26,0-.19-.25-.37-.33l.16-.15-.17,0c.17-.13.2-.3,0-.21l.58-.19c0,.15-.25.13-.37.32s.06.24.23.11c0-.06-.06,0-.16,0,.2-.23.26-.16.44-.27,0,0,0-.12-.07-.05a.24.24,0,0,1,.3,0c-.14,0-.11.16-.19.21.2-.19.33-.17.37,0-.15.29.32,0,.37.21a1.55,1.55,0,0,1-.6.26c0,.17.08.07.05.24.18-.11.43-.31.61-.31l-.14.15c.16,0,.37-.2.43-.06a2.79,2.79,0,0,0,.42.59l-.14.15c.38-.23.37.14.61.11,0,.31.52.24.36.58a2.49,2.49,0,0,1,1.07.74l-.26.15c.21-.1-.08.16,0,.18.1-.23.29-.14.46-.23,0,.3.34.31.61.29l-.14.15c.4-.14.31.25.43.45,0,.08-.15.24-.08.27a1.13,1.13,0,0,1,.62-.1.8.8,0,0,1,.19.48c.67,0,.82.59,1.38.75l-.14.19c.71,0,.82.75,1.3.86l-.32.26c0,.18.29.14.47-.09,0,.18.38.1.2.39,0,.15.25,0,.37,0,.08.3.18.35.42.48l0-.06c-.08,0-.21.16-.18.23s.17.33.45-.08c0,.39.61.29.53.75.08-.11.14-.08.23-.12.17.17.16.54.46.51,0,.07-.2.12-.14.2s.12-.12.23-.12c.45.1.38.74.67.94a5.77,5.77,0,0,1,1.46,1.22l-.07.06c.41-.12.07.61.58.32,0,.1.1.16-.06.27.3-.07.14.49.54.42,0,0,0,0-.08,0,0,.32.37.26.41.57a.3.3,0,0,0-.18.06c-.06.2.45-.13.16.24,0,0,.19-.14.16-.15.25.51.88.71,1.35,1,.09.49-.54.58-.07.56,0,.08.14-.11.08,0,.18,0-.24.51,0,.39s.15-.07.28-.2c0,.31-.11.53.19.51l-.12.1c.47-.14.49.21,1,0,1,.83,2,1.49,2.92,2.32a26.56,26.56,0,0,1,2.49,2.68c-.08.49-.05.5.28.61-.05,0-.08,0-.11.09.24-.22.18.14.42-.06a9.57,9.57,0,0,0,1,.93c-.08,0-.29.14-.22.18l.21-.08-.05.08a.29.29,0,0,0,.27-.18c1,.64,1.39,1.92,2.27,2.69.1.29.46.48.72.64a3.27,3.27,0,0,0,1.48,2.17S41.49,42.66,41.08,42.54Z"/><path class="cls-3" d="M13.4,14.57c-.09.14-.08.27-.3.37A3.77,3.77,0,0,1,13.4,14.57Z"/><path class="cls-3" d="M14.15,17.71s0,.07,0,.1-.15.06-.11,0S14.09,17.75,14.15,17.71Z"/><path class="cls-3" d="M14.58,18.27a.35.35,0,0,1-.37,0Z"/><path class="cls-3" d="M14.61,19.16c0,.13-.11.16-.16.11A.55.55,0,0,1,14.61,19.16Z"/><path class="cls-3" d="M14.88,19s0,.12,0,.19C14.93,19.06,14.7,19.12,14.88,19Z"/><path class="cls-3" d="M15.59,20.27s.17,0,.08.12C15.72,20.28,15.42,20.4,15.59,20.27Z"/><path class="cls-3" d="M16.21,20.58s0,0,0,0a.16.16,0,0,1-.16.11Z"/><polygon class="cls-3" points="25.14 28.67 25.03 28.67 25.14 28.58 25.14 28.67"/><path class="cls-3" d="M28.87,32.4c.12,0-.06.13-.07.16S28.94,32.44,28.87,32.4Z"/><polygon class="cls-3" points="31.39 33.89 31.38 33.88 31.59 33.67 31.39 33.89"/><path class="cls-3" d="M15,42.66c-.06.15.24.12,0,.15C15,42.72,14.93,42.63,15,42.66Z"/><path class="cls-3" d="M43.85,14.09c.2.88-.8.79-.84,1.51,0,.07-.28-.31-.31-.14.05.78-.77,1.11-1.54,1.23l-.06-.11c-.15,0,0,.4-.1.46s0-.11-.15-.16c.14.19-.09.24,0,.4-.1,0-.23-.17-.35-.19l.14.24c.31.59-.38.32-.34.74,0-.05,0-.11-.11-.13,0,.59-.48.93-.73,1.38a1,1,0,0,0-.26-.27.43.43,0,0,1,.07.51c-.25-.16,0,.35-.2.35l0-.06c.13.3-.24,0-.05.32l-.21-.11c.25.33-.27,0-.19.18l.06.06c0,.13-.17,0-.18.13l0,0c-.06.21-.3.13-.07.36-.23-.13.05-.22-.29-.4a4.06,4.06,0,0,1-1.18,1.57.71.71,0,0,1-.3-.11c0,.09-.13.21-.06.37,0,0-.15-.09-.18-.07s.16.34,0,.33a.46.46,0,0,0-.18-.25c.1.25,0,.33-.07.48a.34.34,0,0,0-.1-.16c.1.3-.23.14-.19.36l-.1-.16c-.3,0,.23.32,0,.34,0-.07-.07-.11-.12-.17.12.35-.14.46-.17.65a.25.25,0,0,0,0-.06c-.09.15-.3.21-.33.45-.11,0-.3-.34-.39-.16.27.26-.12.33.26.55-.16.07-.43.15-.42.31,0-.15-.38-.27-.3-.38l-.23-.09c-.1-.12.11,0,0-.15,0,.06-.07.3-.15.3.07.25.29.63.19.8,0-.17-.33-.25-.33-.34l.31.7c0,.06-.22-.2-.22-.06a.54.54,0,0,1,.12.21s-.13.26-.41,0c-.12-.08,0-.13-.12-.17s0,.18-.08.27l0,0c-.1,0-.06.28.15.36,0,0-.17-.14,0-.12a.33.33,0,0,1,0,.42c0-.07-.08-.14-.15-.22a1.3,1.3,0,0,1,0,.72c.12.12-.18-.27-.09-.23-.34,0-.1.58-.49.47,0,0,.19.16.15.13s-.27-.12-.26,0c-.11-.1,0,.1-.05.18s-.06,0,0-.1c0,.16-.12.62-.45.64.07.07.15.36.1.39l-.15-.18c-.13-.06-.12.15-.26,0,.11.28.16-.49.2-.23-.16-.11.1.42-.1.17-.07.09,0,.34-.2.27,0,0-.16-.29-.21-.21s0,.11,0,.26v.12c.15.16-.12.08.1.21-.14-.12-.08.24-.33,0l-.19-.22c0,.06.14.3.19.43a.38.38,0,0,1-.11-.08c.31.32-.14.09,0,.39-.21,0-.27.25-.52.1,0,.17.06.36-.1.38a.23.23,0,0,0-.06-.15c-.15,0-.08.06-.08.16,0-.06-.3-.07-.47-.12,0,.17.21.32.31.43-.38-.24,0,.42-.39.23,0-.07,0-.27-.18-.28-.38-.24.08.37-.18.34l.29.23c-.21-.11,0,.32-.27,0,.05.13-.22.05,0,.29-.4,0-.33.59-.9.26,0,.07-.1.09,0,.21s0-.16.08-.08,0,.11.08.14-.18,0-.33-.23c-.29,0,.29.56,0,.63-.1-.11-.15-.14-.18-.07l.09.27c-.15.07-.3-.18-.48-.35,0,.09-.11.15,0,.31l-.29-.15c.21.11.06.15.07.22l0-.07c-.08-.06-.11,0-.12.1a.35.35,0,0,0,.3.07c0,.11,0,.13,0,.27-.16-.19-.22,0-.28,0s.1.21.07.22-.1.07-.19-.1.13,0,.08-.06-.25-.19-.21,0,.36.33.14.32a1.36,1.36,0,0,0-.12-.23h-.19l.15.16c-.05,0-.06,0-.08-.06.14.19-.1.2.07.41,0,.06-.21,0-.28,0v0c-.15,0-.16.1-.11.25l0,0s-.09.12,0,.25c-.2,0-.62-.57-.51-.28-.07.08.16.41.3.48-.25,0-.15.46-.53.34,0,.08.1.11.09.19-.27.15-.26.63-.73.49,0-.13-.15-.16-.24-.25.09.19-.21-.09,0,.17s.21.21.33.21c0,.2-.24.39-.44.33a.19.19,0,0,1,.13.17c-.22-.24-.34-.18-.33,0l.13.15-.19-.1c0,.07.26.32.06.26a1,1,0,0,0-.17-.13c0,.19.13.48-.06.44l-.27-.14c0,.06.05.23.17.23-.26,0-.36.08-.57,0a1.05,1.05,0,0,1-.42,1.24l-.1-.11c-.17,0,.14.22,0,.2s-.27-.16-.33-.34c-.21,0,0,.31,0,.43s0-.14.13,0-.25,0-.06.26a1.19,1.19,0,0,1-.31-.32l0,.16c-.32-.16-.25-.6-.63-.82l0,.09c-.27-.16-.09-.4-.31-.32,0,.16.28.52.43.55-.07.19.43.55.27.68-.16-.08.08-.14-.11-.28s0,.23-.16.23c.14,0,.3.28.29.36-.17,0-.15-.24-.27-.16.1.14.1.32.26.32.23.31-.18,0,0,.3-.22-.16-.33-.54-.54-.53.2.17.11.39.44.6a.58.58,0,0,1-.32-.29c-.17,0,.18.48-.2.14l.17.21-.29-.13c-.06.05.07.43-.2.14,0,0-.13.16.12.31s-.05-.23.25,0c-.27-.16-.09.14-.06.26l-.12-.1c0,.07-.07.11,0,.24a.29.29,0,0,0-.17-.15l.14.19c0,.19-.32-.27-.38-.11l0-.21s-.18-.07-.18,0,.28.39.38.52-.2-.14-.1.07l-.1-.26c0-.06-.3-.2-.38-.11s.14.4.3.4c0,0-.19,0-.26-.14,0,.14.17.15.19.32-.13-.07-.38-.11-.58-.2l-.17-.34-.06.05c-.13-.27-.19-.12-.36-.37-.07,0,0,.12,0,.21.45.23.35.59.69.87-.06.23-.85-.67-.52,0,.11.06.27.37.28.18-.13.06.25.38,0,.36,0-.21-.4-.23-.47-.53.1.11.14,0,.13,0s-.31-.32-.4-.23-.1.17.07.32.07-.11.21.11c-.05.18-.34-.07-.08.29,0-.1.25.07.37.19V41l-.1-.14c-.22.05.18.26,0,.36L20,41c-.17-.23.28-.1-.07-.41-.1.07,0,.27-.13.26,0,0,0-.08,0-.13s-.51-.39-.38,0c0,.16.1.13.22.26-.1.18,0,.34-.09.45-.22-.26-.18.13-.33-.21.19.1.37-.12.19-.4-.33-.23.15-.07-.11-.39-.12.1-.39-.18-.59-.35,0,0,0,.13,0,.17s.2.14.38.32c-.17.08-.19.29-.09.53-.13,0-.29-.23-.25-.3a.92.92,0,0,1-.47.42c.37.19-.09.22.21.39A.63.63,0,0,1,19,42c-.06,0-.12-.13-.2-.17.09.21-.34-.15-.15.15,0-.23-.32-.37-.51-.62,0,.22-.15-.16-.25-.07a1.29,1.29,0,0,1-.05.59c-.34-.08-.34.34-.46.46-.17,0-.38-.34-.49-.32s.33.21.1.21l0-.06c0,.09-.39,0-.06.44l-.23-.31s0,.08,0,.13-.19-.14-.22-.24c-.26-.11-.12.18-.2.27l.21.11c0,.26-.26.19-.34.38l-.15-.16,0,.17c-.13-.17-.3-.2-.22,0l-.18-.59c.15,0,.13.25.32.37s.24-.06.11-.23c-.06,0,0,.07,0,.16-.23-.2-.15-.27-.26-.45,0,0-.12,0-.05.08a.25.25,0,0,1,0-.3c0,.14.16.11.21.19-.19-.2-.17-.33,0-.38.29.15,0-.33.22-.38a1.53,1.53,0,0,1,.25.6c.17,0,.07-.09.24-.06-.11-.18-.31-.43-.3-.61l.15.14c0-.16-.2-.37-.05-.44a2.93,2.93,0,0,0,.61-.43l.15.14c-.23-.39.15-.38.12-.62.32,0,.25-.53.59-.37a2.61,2.61,0,0,1,.76-1.09l.15.26c-.09-.21.16.08.19,0-.23-.1-.14-.3-.22-.47.31,0,.32-.35.3-.63l.15.14c-.14-.4.26-.32.46-.44.08,0,.24.15.28.08a1.13,1.13,0,0,1-.09-.63.83.83,0,0,1,.49-.2c0-.68.61-.84.78-1.41l.2.14c0-.72.77-.84.89-1.33l.26.32c.19,0,.14-.3-.08-.48.18,0,.1-.38.4-.21.15,0,0-.25,0-.37.31-.09.36-.19.49-.43l-.06,0c0,.08.16.21.23.18s.33-.18-.08-.45c.4,0,.3-.63.76-.55-.11-.08-.08-.14-.12-.23.17-.18.55-.17.53-.47.08,0,.12.2.2.14s-.12-.12-.12-.23c.11-.46.75-.39,1-.7a6.07,6.07,0,0,1,1.25-1.49l.06.07c-.12-.41.61-.07.33-.59.1,0,.16-.1.27.06-.07-.3.5-.15.44-.56,0,0,0,0,0,.08.32,0,.26-.38.58-.42a.29.29,0,0,0,.06.18c.2.06-.13-.46.24-.16,0,0-.14-.2-.15-.16.52-.27.73-.9,1.07-1.39.49-.1.58.54.56.06.08,0-.11-.14,0-.08,0-.18.51.23.4,0s-.07-.16-.2-.28c.31,0,.53.1.52-.2l.1.12c-.14-.47.22-.5,0-1,.85-1,1.54-2.06,2.39-3a28,28,0,0,1,2.74-2.55c.49.07.5,0,.62-.3,0,.06,0,.08.09.11-.22-.24.14-.18-.06-.43a10.08,10.08,0,0,0,1-1c0,.08.13.3.18.22l-.08-.22.08.05a.28.28,0,0,0-.18-.27c.66-1.06,2-1.44,2.75-2.34.3-.1.49-.48.66-.74A3.43,3.43,0,0,0,43.46,13S44,13.68,43.85,14.09Z"/><path class="cls-3" d="M15.14,42.51c.14.09.28.08.37.3A3.67,3.67,0,0,1,15.14,42.51Z"/><path class="cls-3" d="M18.33,41.71s.08,0,.1,0,.06.15,0,.11S18.37,41.77,18.33,41.71Z"/><path class="cls-3" d="M18.91,41.27a.35.35,0,0,1,0,.38Z"/><path class="cls-3" d="M19.81,41.22c.13,0,.16.11.11.16A.54.54,0,0,1,19.81,41.22Z"/><path class="cls-3" d="M19.61,41s.12,0,.2,0C19.72,40.9,19.77,41.14,19.61,41Z"/><path class="cls-3" d="M20.94,40.22s0-.17.12-.08C21,40.08,21.07,40.39,20.94,40.22Z"/><path class="cls-3" d="M21.27,39.58s0,0,0,0a.16.16,0,0,1,.11.16Z"/><polygon class="cls-3" points="29.59 30.43 29.58 30.54 29.49 30.43 29.59 30.43"/><path class="cls-3" d="M33.41,26.6c0-.12.13.06.16.07S33.45,26.52,33.41,26.6Z"/><polygon class="cls-3" points="34.96 24.02 34.94 24.04 34.74 23.82 34.96 24.02"/></svg>