<svg id="Layer_1" data-name="Layer 1" xmlns="http://www.w3.org/2000/svg" viewBox="0 0 55.73 55.73"><defs><style>.cls-1{fill:#202020;}.cls-2{fill:none;stroke:#000;stroke-miterlimit:10;}</style></defs><title>questionmark</title><path class="cls-1" d="M17.46,19.16,17.7,19A.22.22,0,0,0,17.46,19.16Z"/><path class="cls-1" d="M32.83,31.81a.42.42,0,0,0,0,.06A.08.08,0,0,0,32.83,31.81Z"/><path class="cls-1" d="M25.91,17.85h0l0,.05Z"/><path class="cls-1" d="M24.7,20.18c.05-.07.16-.28.29-.48a2.68,2.68,0,0,1,.42-.44c.28-.25.47-.4.35-.7.16-.16,0-.39.15-.7-.24-.36-.13-.45,0-.51s.24-.12.19-.48l.31.37c0-.26,0-.45.19-.26l.05.13c0-.39.23-.25.23-.45l0,.13.16-.12,0,.2c.13-.45.44-.56.73-.43l-.13-.57c.36.26.53.09.73,0a.37.37,0,0,1,.65.11v.14c.09-.55.25-.57.32-.43s.08.44.12.52.11,0,.38-.32a2,2,0,0,0-.2.4c.19-.07.31-.08,1.1-.91.27.24,0,.46-.24.83a.66.66,0,0,1,.91-.21l-.22.07.69.36.5-.81c.13.47-.67.94-.24,1l.51-.59c.31.48-.26,1.57-.38,2.28a2.64,2.64,0,0,0,.23.3,1.33,1.33,0,0,0,.2.2l.33.14a1.71,1.71,0,0,1,.79.52c.24.4,0,.84-.68,1l-.58-.15c-.8-.3.93,1,.18.79l.26.38c-.17,0-.37.05-.5-.13-.12.18,0,.24.18.49l-.58,0c-.71.5-.11,1.54-.7,2-.67,0-1,.36-1.4,1s-.78,1.49-1.09,2.15C28.68,28,27.52,28.36,26.28,29S23.93,30.41,24,31.68c-.14,0,0,.28.08.33l-.53.74-.25.36-.38.59s-.12.19-.27.52a5.63,5.63,0,0,0-.44,1.36,5.46,5.46,0,0,0,0,1.83,6.22,6.22,0,0,0,.21.9,1.81,1.81,0,0,0,.29.49,2.74,2.74,0,0,0,2,.75A3.07,3.07,0,0,0,26.42,39a10.11,10.11,0,0,0,1.05-.8,3.5,3.5,0,0,1,1.23-.6l.19,0c.48-.35.62-.32-.07-1,.53.24.55.26.63,0s0-.48.23-.48l.07.07c-.46-.94,1.2-.54.8-1.36.07.07.32.25.28.35.07-.37.13-.88.68-.5.3-.72,1.12-1.12.83-2.3l.1.16c-.26-.74.22-.35.25-.87.07.05.12.07.14.1-.21-.77.75-.81.79-1.25l.31.32.54-.63-.29.14c-.75-1,1,.15.9-.89.27-.15,0-.83-.2-1.44s-.45-1.16,0-1.2c-.28-.58.58.78.49.17.52.38.19.41.66.63,0-.53,1-.22.93-.93l.43.25c-.38-1.08,1.27-.85.73-1.68-.05-.81,1.55.22,1-.86l.73,0c.22-.24-.66-.54-.23-.71.38.19.48-.25.77.09a.63.63,0,0,0,.25-.2.58.58,0,0,0,.07-.12,2,2,0,0,0,.08-.22,6.42,6.42,0,0,0,.15-1,3.16,3.16,0,0,1,.85-2.05c-.77-.38-.24-1.13-.9-1.34.08,0,.13-.11.15-.23.08-.39-.13-1.09.6-.53.08.07.09.2-.05.21l.5,0a.91.91,0,0,0-.19-1.32c-.35-.36-.82-.63-1-1.06,0,.3.16.6-.26.5-.1-.25-.19-.5-.31-.75h.47c-.14-.4-.28-.81-.46-1.21L40,15c-.09-.62.46-1.34-.58-1.47-.51,0-.18.87-.7.48a7.24,7.24,0,0,0-.85-2.39c-.34.46-.47.31-.7.27l.32-.38c-1,0,.52-1-.41-1.09l.28-.22-.82.66c-1.12.35.39-1-1-.42.26.1-.6.93-.71.56l.37-.32c-.2,0-.38.08-.4-.07.24-.14.5-.5.22-.62a4.55,4.55,0,0,0,.53-.35,5,5,0,0,1-1.11.25C34.2,9,33,9.1,33.09,8.39A2.29,2.29,0,0,0,32.42,8a.91.91,0,0,0-1.05.21c.39-.39-.33-.71,0-1.2-.52.42-1.59.78-2,.23l.09-.06a2,2,0,0,0-1-.11,3,3,0,0,0-.78.28,1.85,1.85,0,0,1-1.56.23c.16.56-.47.37-.17,1.06-.45.48-1,.24-1.48.21s-.8.12-.54,1.24c-.4.3-.76-.25-1.06-.24l.06-.16a14,14,0,0,1-1.68,1.18c-.18.43.43,1.25-.2,1.48-.13-.45-.27-.22-.45-.05.07-.15,0-.31-.44-.28a.77.77,0,0,1,.06.33.34.34,0,0,1-.08-.07c-.19.41,0,.44.14.35a.46.46,0,0,0,.24.14c-.71-.07-.73.92-1.34.52-.65,1.2-.32,2.36-.32,3.31a.7.7,0,0,1-.68-.65c0,.24-.06.49-.08.73-.52-.15-.18-.49-.21-.73-.56.29-.48.82-.35,1.31s.3,1-.13,1.42l.41.23L17.7,19a.9.9,0,0,1,.59.36c-.47.12-1.08,0-1,.45-.45.39.27,1.09.62,1.6,0-.31.3-.25.48-.16s-.36.49-.12.64l-.6.18c.54-.24.82.5,1.12.48-.39.3-.53-.24-.88-.21a5.75,5.75,0,0,0,.79,1.45c.73.24.47-.37,1.1-.42.37.32,1,.34,1.07.9l.32-.46c.91.19,1.18.37,1.33,1.05A4.78,4.78,0,0,0,24.6,23.8a3.09,3.09,0,0,0,.83-1.08,1.82,1.82,0,0,0,.25-1.47,3.51,3.51,0,0,1,0-1.05c.17-.49.28-.36,0-.18S25,20.38,24.7,20.18Z"/><path class="cls-1" d="M29.16,42.59l-.23,0Z"/><path class="cls-1" d="M28.49,45.27h0Z"/><path class="cls-1" d="M21.41,43.6h0Z"/><path class="cls-1" d="M22,43.46c-.27.08-1.35.19-.91.15h.29c.84,0,0,0,.72-.05h-.48c.24,0,.41,0,.15,0H21.7c.39,0,.41,0,.23,0l.58,0c-.65,0,.55.06-.22,0h-.14c1.53.14-1,0,.4.14l-.44,0a9.5,9.5,0,0,0,1.38.17,6.91,6.91,0,0,1-.79-.06,3.16,3.16,0,0,1,.73.11l-.19,0,.16.07.94.08c-.27,0-1.15-.11-.92-.06l.78.08c-.16,0-1.34-.07-1.91-.09-.35.16,1.61.55.22.7l-.59,0c-.86,0,1.26.14.47.11l.39.05a3.22,3.22,0,0,1-.51,0s.11,0,.36.07h-.53c-.42.13.61.24.4.38-1.08.22-.07.58.55.73s.14.27-.3.62-.84.74-.06.72c-.11.06.16,0,.25,0,0,.14,0,.29.06.44,0,0,.19.55,1,.33A5.11,5.11,0,0,0,25.75,47c.38-.3.81-.68,1.34-1.09l.42-.31.18-.13h0l0,0,0,0h0l.1,0h0l.1,0c.11,0,.21,0,.37-.08h0l.16,0h0l.26,0h.1l-.22,0,.23,0,.21,0H29c.16,0-2.54.09-1.95,0-.57,0,.93,0,.49,0h.91c-.3,0,.65,0,.22,0h.5c-.91,0,.66,0-.21,0-.41,0,1.48,0,.5,0l.67,0c.11,0-.82,0-.5,0l.74,0c.66,0-.93-.11.19-.06-.82-.07-.33,0-.95-.11a5.26,5.26,0,0,1,.84.05c.06,0,.05,0-.09,0l.49,0c.92.05-.5-.1-.36-.11a3,3,0,0,1-.45,0l.07,0,.41,0,.24,0-.51,0c.26,0,1.13.08.41,0-.4-.05-.68,0-.84-.09a7.07,7.07,0,0,0,1,0,3.49,3.49,0,0,1-.66-.09l.5,0c-.68-.12,1.09.09.55,0l.35,0-1-.12c-1-.14,1,.08-.31-.1a5.66,5.66,0,0,1-.88-.1l.48.05c-.1,0-.3,0-.2,0a2.31,2.31,0,0,0,.62,0l.6.07L30,44.44c.52,0-.12-.1.55-.06,0,0,.34-.05-.4-.13.46.05.64,0,1.18.07-.52-.06-.94-.15-.38-.14H31c.57-.09-.77-.24-.07-.31-.58,0-.26-.06-1-.07s1.51-.18-.78-.24c-.12,0,.54-.06.65-.09h.12c-.19-.1-.21-.12-.16-.2-.22,0-1.28,0-1-.05.42,0,.34,0,.34,0a2.23,2.23,0,0,0,.5,0h-.17a.84.84,0,0,0-.34,0l-.26,0c.54-.06,0-.09.68-.14a8.23,8.23,0,0,0-1.22-.14,5.61,5.61,0,0,1,.85,0l-.14,0c.53-.05.31,0,.42,0,.85-.16-.88,0-.1-.21l-.42,0h.07l-.6,0a6.59,6.59,0,0,0,1-.17c.44-.09-.24-.06-.5-.06a2.73,2.73,0,0,1-.5.08s.44-.09.24-.08l.62-.1a8.31,8.31,0,0,1-.9.08c.46-.08.41,0,.76-.09l-.12-.1c-.48,0-.59.11-1.14.18-.13,0-.57,0-.21-.06l-.55.11c-.45,0-.4,0,.15-.15a37.79,37.79,0,0,0-4.69.9l-1.33.32C20,43.81,21.57,43.48,22,43.46Z"/><circle class="cls-2" cx="28" cy="28" r="25.5"/></svg>