<svg id="Layer_1" data-name="Layer 1" xmlns="http://www.w3.org/2000/svg" xmlns:xlink="http://www.w3.org/1999/xlink" viewBox="0 0 55.73 55.73"><defs><style>.cls-1{fill:#f5ffce;stroke:#000;stroke-miterlimit:10;}.cls-2{fill:#0d0d0d;opacity:0.3;}.cls-3{opacity:0.57;fill:url(#linear-gradient);}</style><linearGradient id="linear-gradient" x1="30.89" y1="14.24" x2="27.41" y2="22.86" gradientUnits="userSpaceOnUse"><stop offset="0" stop-color="#303030" stop-opacity="0.44"/><stop offset="1"/></linearGradient></defs><title>questionmark</title><circle class="cls-1" cx="28" cy="28" r="25"/><path class="cls-2" d="M22,47.84,27.18,53S32,54,39.86,50C52,43.84,53.19,30,53,31.61L40.57,15l-6.12-2.47L27.1,11.43,17.26,23.82l12.1,11.69Z"/><polygon class="cls-3" points="31.2 23.88 28.66 21.32 23.59 21.32 24.61 13.14 30.69 14.17 34.75 21.32 31.2 23.88"/><path d="M25.51,20.87c-1.78.16-1.32-4.87-.57-5.75,2.11-2.5,5,0,6.2,1.5,2.61,3.19.77,6.64-1.73,9.43-3.95,4.41-8.53,7.32-8.46,13.83,0,3.8,8.75,2,8.71-1-.09-7.89,9-11.61,11.42-18.94C42.82,14.61,36.38,9,31.44,8.47c-5.67-.6-13,2.05-15.23,7.69-2.47,6.32,2,10.35,8.2,9.81,4.38-.39,7.13-5.64,1.11-5.1Z"/><path d="M21.33,43.36a2.26,2.26,0,0,1,.28,1c0-.42,0,.21,0,.27s0,.36-.05.54a3.71,3.71,0,0,0,.62,2.76c.39.58,1.77.69,2.33.7a8.57,8.57,0,0,0,3.4-.69c1.23-.55,3.43-1.76,2.36-3.35.18.26,0,.06,0-.13s0-.26-.05-.4,0,.24,0-.16c0-.18,0-.36.05-.55A3.94,3.94,0,0,0,30,41c-.9-1.61-3.37-1.34-4.9-.89a7.16,7.16,0,0,0-2.91,1.43c-.39.37-1.23,1.18-.88,1.8Z"/></svg>