<svg id="Layer_1" data-name="Layer 1" xmlns="http://www.w3.org/2000/svg" viewBox="0 0 55.73 55.73"><defs><style>.cls-1,.cls-2,.cls-3,.cls-5{fill:none;}.cls-1,.cls-2,.cls-3,.cls-4,.cls-5{stroke:#000;stroke-miterlimit:10;}.cls-2{stroke-width:1.2px;}.cls-3{stroke-width:0.25px;}.cls-4{fill:#fff;}.cls-5{stroke-width:0.75px;}</style></defs><title>school</title><circle class="cls-1" cx="28.5" cy="27.5" r="25"/><rect class="cls-2" x="24.96" y="6.69" width="7.84" height="42.54" transform="translate(28.23 -12.23) rotate(45)"/><line class="cls-3" x1="40.36" y1="11.73" x2="41.15" y2="12.52"/><line class="cls-3" x1="38.77" y1="11.73" x2="41.94" y2="14.9"/><line class="cls-3" x1="38.77" y1="13.32" x2="39.57" y2="14.11"/><line class="cls-3" x1="37.19" y1="13.32" x2="40.36" y2="16.48"/><line class="cls-3" x1="37.19" y1="14.9" x2="37.98" y2="15.69"/><line class="cls-3" x1="35.61" y1="14.9" x2="38.77" y2="18.07"/><line class="cls-3" x1="35.61" y1="16.48" x2="36.4" y2="17.27"/><line class="cls-3" x1="34.03" y1="16.48" x2="37.19" y2="19.65"/><line class="cls-3" x1="34.03" y1="18.07" x2="34.82" y2="18.86"/><line class="cls-3" x1="32.44" y1="18.07" x2="35.61" y2="21.23"/><line class="cls-3" x1="32.44" y1="19.65" x2="33.23" y2="20.44"/><line class="cls-3" x1="30.86" y1="19.65" x2="34.03" y2="22.82"/><line class="cls-3" x1="30.86" y1="21.23" x2="31.65" y2="22.02"/><line class="cls-3" x1="29.28" y1="21.23" x2="32.44" y2="24.4"/><line class="cls-3" x1="29.28" y1="22.82" x2="30.07" y2="23.61"/><line class="cls-3" x1="27.69" y1="22.82" x2="30.86" y2="25.98"/><line class="cls-3" x1="27.69" y1="24.4" x2="28.48" y2="25.19"/><line class="cls-3" x1="26.11" y1="24.4" x2="29.28" y2="27.57"/><line class="cls-3" x1="26.11" y1="25.98" x2="26.9" y2="26.77"/><line class="cls-3" x1="24.53" y1="25.98" x2="27.69" y2="29.15"/><line class="cls-3" x1="24.53" y1="27.57" x2="25.32" y2="28.36"/><line class="cls-3" x1="22.94" y1="29.15" x2="23.73" y2="29.94"/><line class="cls-3" x1="21.36" y1="29.15" x2="24.53" y2="32.31"/><line class="cls-3" x1="21.36" y1="30.73" x2="22.15" y2="31.52"/><line class="cls-3" x1="19.78" y1="30.73" x2="22.94" y2="33.9"/><line class="cls-3" x1="19.78" y1="32.31" x2="20.57" y2="33.11"/><line class="cls-3" x1="18.19" y1="32.31" x2="21.36" y2="35.48"/><line class="cls-3" x1="18.19" y1="33.9" x2="18.98" y2="34.69"/><line class="cls-3" x1="16.61" y1="33.9" x2="19.78" y2="37.06"/><line class="cls-3" x1="16.61" y1="35.48" x2="17.4" y2="36.27"/><line class="cls-3" x1="15.03" y1="35.48" x2="18.19" y2="38.65"/><line class="cls-3" x1="15.03" y1="37.06" x2="15.82" y2="37.86"/><line class="cls-3" x1="13.44" y1="37.06" x2="16.61" y2="40.23"/><line class="cls-3" x1="13.44" y1="38.65" x2="14.23" y2="39.44"/><line class="cls-3" x1="11.86" y1="38.65" x2="15.03" y2="41.81"/><polygon class="cls-4" points="41.24 36.24 43.78 43.2 36.82 40.67 11.08 14.92 15.5 10.5 41.24 36.24"/><polyline class="cls-5" points="36.95 40.8 36.96 39.31 38.44 39.31 38.44 39.31 38.45 37.83 39.93 37.82 39.94 36.34 41.42 36.33"/><line class="cls-1" x1="14.5" y1="18.5" x2="19" y2="14"/></svg>