<svg id="Layer_1" data-name="Layer 1" xmlns="http://www.w3.org/2000/svg" viewBox="0 0 55.73 55.73"><defs><style>.cls-1,.cls-2,.cls-4{fill:none;}.cls-1,.cls-2,.cls-3,.cls-4,.cls-5,.cls-6{stroke:#000;stroke-miterlimit:10;}.cls-2{stroke-width:0.75px;}.cls-3{fill:#fff;}.cls-4,.cls-5{stroke-width:0.5px;}</style></defs><title>starthabit</title><circle class="cls-1" cx="28" cy="28" r="25.5"/><polygon class="cls-1" points="48.84 24.48 42.77 30.56 42.23 31.09 23.29 50.03 22.71 49.45 41.68 30.48 41.61 29.39 47.68 23.32 48.84 24.48"/><line class="cls-2" x1="42.45" y1="28.55" x2="39.55" y2="25.64"/><line class="cls-2" x1="47.1" y1="23.9" x2="44.19" y2="21"/><line class="cls-2" x1="43.03" y1="27.97" x2="40.71" y2="25.64"/><line class="cls-2" x1="44.48" y1="27.1" x2="42.16" y2="24.77"/><line class="cls-2" x1="46.81" y1="24.77" x2="44.48" y2="22.45"/><line class="cls-2" x1="43.61" y1="27.39" x2="41.71" y2="25.48"/><line class="cls-2" x1="44.78" y1="26.23" x2="42.16" y2="23.61"/><line class="cls-2" x1="45.94" y1="25.06" x2="43.61" y2="22.74"/><line class="cls-2" x1="45.65" y1="25.94" x2="43.32" y2="23.61"/><circle class="cls-3" cx="17.5" cy="29.5" r="7"/><line class="cls-4" x1="17.5" y1="29.5" x2="21.5" y2="25.5"/><line class="cls-4" x1="20.5" y1="32.5" x2="17.5" y2="29.5"/><line class="cls-4" x1="19.5" y1="36.5" x2="21.5" y2="39.5"/><line class="cls-4" x1="15.5" y1="36.5" x2="13.5" y2="39.5"/><circle class="cls-5" cx="17.5" cy="29.5" r="1"/><rect class="cls-3" x="21.5" y="9.5" width="17" height="12" rx="2" ry="2" transform="translate(11.41 -12.69) rotate(29.27)"/><rect class="cls-6" x="22.48" y="12.76" width="17" height="2" transform="translate(10.68 -13.39) rotate(29.27)"/></svg>