<svg id="Layer_1" data-name="Layer 1" xmlns="http://www.w3.org/2000/svg" viewBox="0 0 55.73 55.73"><defs><style>.cls-1{fill:#8e44e6;}.cls-2{fill:#0d0d0d;opacity:0.39;}.cls-3{fill:#999;}.cls-4{fill:#fff;}</style></defs><title>trash-hover</title><circle class="cls-1" cx="28" cy="30" r="25"/><path class="cls-2" d="M20,52l6.39,2.5S32.91,57.11,41.23,51C55,41,52,34,52,34L42,23Z"/><polygon class="cls-3" points="36.54 50.81 20.93 50.81 15.35 24.04 41 24.04 36.54 50.81"/><path d="M36.54,49.31H20.93l1.45,1.1L16.8,23.65l-1.45,1.9H41l-1.45-1.9L35.1,50.41c-.31,1.89,2.58,2.7,2.89.8l4.46-26.76A1.52,1.52,0,0,0,41,22.54H15.35a1.52,1.52,0,0,0-1.45,1.9l5.58,26.76a1.52,1.52,0,0,0,1.45,1.1H36.54A1.5,1.5,0,0,0,36.54,49.31Z"/><path d="M21.71,24.44l5.58,26.76c.39,1.89,3.29,1.09,2.89-.8L24.61,23.65c-.39-1.89-3.29-1.09-2.89.8Z"/><path d="M31.75,23.65,27.29,50.41c-.31,1.89,2.58,2.7,2.89.8l4.46-26.76c.31-1.89-2.58-2.7-2.89-.8Z"/><rect class="cls-4" x="10.73" y="9.26" width="32.34" height="6.69" transform="translate(-2.35 7.43) rotate(-15.07)"/><path d="M43,10.18,11.76,18.59l1.85,1-1.74-6.46-1,1.85L42,6.62l-1.85-1L41.94,12a1.5,1.5,0,0,0,2.89-.8L43.09,4.77a1.52,1.52,0,0,0-1.85-1L10,12.13A1.52,1.52,0,0,0,9,14l1.74,6.46a1.52,1.52,0,0,0,1.85,1l31.23-8.41A1.5,1.5,0,0,0,43,10.18Z"/><rect class="cls-4" x="19.03" y="3.91" width="12.27" height="4.46" transform="translate(-0.73 6.75) rotate(-15.07)"/><path d="M30.11.95,18.26,4.14a1.52,1.52,0,0,0-1,1.85l1.16,4.31a1.52,1.52,0,0,0,1.85,1L32.06,8.15a1.52,1.52,0,0,0,1-1.85L32,2a1.5,1.5,0,0,0-2.89.8L30.22,7.1l1-1.85L19.42,8.44l1.85,1L20.11,5.18,19.06,7,30.9,3.84A1.5,1.5,0,0,0,30.11.95Z"/></svg>