<svg id="Layer_1" data-name="Layer 1" xmlns="http://www.w3.org/2000/svg" viewBox="0 0 55.73 55.73"><defs><style>.cls-1,.cls-4{fill:none;}.cls-2{fill:#999;}.cls-3{fill:#fff;}.cls-4{stroke:#000;stroke-miterlimit:10;}</style></defs><title>trash-hover</title><circle class="cls-1" cx="29" cy="29" r="25"/><polygon class="cls-2" points="35.5 46.5 21.5 46.5 16.5 22.5 39.5 22.5 35.5 46.5"/><path d="M35.5,45h-14l1.45,1.1-5-24L16.5,24h23l-1.45-1.9-4,24c-.31,1.89,2.58,2.7,2.89.8l4-24A1.52,1.52,0,0,0,39.5,21h-23a1.52,1.52,0,0,0-1.45,1.9l5,24A1.52,1.52,0,0,0,21.5,48h14A1.5,1.5,0,0,0,35.5,45Z"/><path d="M22.05,22.9l5,24c.39,1.89,3.29,1.09,2.89-.8l-5-24c-.39-1.89-3.29-1.09-2.89.8Z"/><path d="M31.05,22.1l-4,24c-.31,1.89,2.58,2.7,2.89.8l4-24c.31-1.89-2.58-2.7-2.89-.8Z"/><rect class="cls-3" x="10.5" y="8.29" width="29" height="6" transform="translate(-2.43 10.96) rotate(-23.6)"/><path d="M38.73,6.94,12.16,18.55l2.05.54-2.4-5.5-.54,2.05L37.84,4l-2.05-.54L38.19,9c.77,1.76,3.36.24,2.59-1.51L38.38,2a1.53,1.53,0,0,0-2.05-.54L9.76,13.05a1.53,1.53,0,0,0-.54,2.05l2.4,5.5a1.53,1.53,0,0,0,2.05.54L40.25,9.53C42,8.76,40.49,6.17,38.73,6.94Z"/><rect class="cls-3" x="17.1" y="3.79" width="11" height="4" transform="translate(-0.43 9.53) rotate(-23.6)"/><path d="M26.08.46,16,4.87a1.53,1.53,0,0,0-.54,2.05l1.6,3.67a1.53,1.53,0,0,0,2.05.54L29.2,6.72a1.53,1.53,0,0,0,.54-2.05L28.13,1c-.77-1.76-3.36-.24-2.59,1.51l1.6,3.67.54-2.05L17.6,8.53l2.05.54-1.6-3.67-.54,2.05,10.08-4.4C29.36,2.28,27.83-.3,26.08.46Z"/><circle class="cls-4" cx="28" cy="28" r="25.5"/></svg>