<svg id="Layer_1" data-name="Layer 1" xmlns="http://www.w3.org/2000/svg" viewBox="0 0 55.73 55.73"><defs><style>.cls-1,.cls-4{fill:none;}.cls-2{fill:#999;}.cls-3{fill:#fff;}.cls-4{stroke:#000;stroke-miterlimit:10;}</style></defs><title>trash</title><circle class="cls-1" cx="29" cy="29" r="25"/><polygon class="cls-2" points="35.5 46.5 21.5 46.5 16.5 22.5 39.5 22.5 35.5 46.5"/><path d="M35.5,45h-14l1.45,1.1-5-24L16.5,24h23l-1.45-1.9-4,24c-.31,1.89,2.58,2.7,2.89.8l4-24A1.52,1.52,0,0,0,39.5,21h-23a1.52,1.52,0,0,0-1.45,1.9l5,24A1.52,1.52,0,0,0,21.5,48h14A1.5,1.5,0,0,0,35.5,45Z"/><path d="M22.05,22.9l5,24c.39,1.89,3.29,1.09,2.89-.8l-5-24c-.39-1.89-3.29-1.09-2.89.8Z"/><path d="M31.05,22.1l-4,24c-.31,1.89,2.58,2.7,2.89.8l4-24c.31-1.89-2.58-2.7-2.89-.8Z"/><rect class="cls-3" x="13.51" y="15.5" width="29" height="6" transform="translate(-0.05 0.08) rotate(-0.16)"/><path d="M42.52,20l-29,.08,1.5,1.5,0-6L13.5,17l29-.08L41,15.46l0,6a1.5,1.5,0,0,0,3,0l0-6A1.52,1.52,0,0,0,42.5,14L13.5,14a1.52,1.52,0,0,0-1.5,1.5l0,6a1.52,1.52,0,0,0,1.5,1.5l29-.08A1.5,1.5,0,0,0,42.52,20Z"/><rect class="cls-3" x="22.49" y="10.5" width="11" height="4" transform="translate(-0.03 0.08) rotate(-0.16)"/><path d="M33.48,9l-11,0a1.52,1.52,0,0,0-1.5,1.5v4A1.52,1.52,0,0,0,22.5,16l11,0a1.52,1.52,0,0,0,1.5-1.5v-4a1.5,1.5,0,0,0-3,0v4L33.5,13l-11,0,1.5,1.5v-4L22.48,12l11,0A1.5,1.5,0,0,0,33.48,9Z"/><circle class="cls-4" cx="28" cy="28" r="25.5"/></svg>