<svg id="Layer_1" data-name="Layer 1" xmlns="http://www.w3.org/2000/svg" viewBox="0 0 55.73 55.73"><defs><style>.cls-1{fill:#8e44e6;}.cls-2{fill:#0d0d0d;stroke:#0d0d0d;stroke-miterlimit:10;opacity:0.39;}.cls-3{font-size:65.1px;font-family:Papyrus-Regular, Papyrus;}.cls-4{fill:#999;}.cls-5{fill:#fff;}</style></defs><title>Artboard 1</title><circle class="cls-1" cx="28" cy="28" r="25"/><path class="cls-2" d="M20.5,47.5l5,5a39.86,39.86,0,0,0,16-4c10-5,11-21,11-21l-9-12Z"/><text class="cls-3" transform="translate(-29.33 114.05)">$</text><polygon class="cls-4" points="35.5 46.5 21.5 46.5 16.5 22.5 39.5 22.5 35.5 46.5"/><path d="M35.5,45h-14l1.45,1.1-5-24L16.5,24h23l-1.45-1.9-4,24c-.31,1.89,2.58,2.7,2.89.8l4-24A1.52,1.52,0,0,0,39.5,21h-23a1.52,1.52,0,0,0-1.45,1.9l5,24A1.52,1.52,0,0,0,21.5,48h14A1.5,1.5,0,0,0,35.5,45Z"/><path d="M22.05,22.9l5,24c.39,1.89,3.29,1.09,2.89-.8l-5-24c-.39-1.89-3.29-1.09-2.89.8Z"/><path d="M31.05,22.1l-4,24c-.31,1.89,2.58,2.7,2.89.8l4-24c.31-1.89-2.58-2.7-2.89-.8Z"/><rect class="cls-5" x="25" y="5" width="6" height="29" transform="translate(8.46 47.47) rotate(-89.92)"/><path d="M42.49,21l-29,0,1.5,1.5v-6L13.5,18l29,0L41,16.52v6a1.5,1.5,0,0,0,3,0v-6A1.52,1.52,0,0,0,42.5,15l-29,0a1.52,1.52,0,0,0-1.5,1.5v6a1.52,1.52,0,0,0,1.5,1.5l29,0A1.5,1.5,0,0,0,42.49,21Z"/><rect class="cls-5" x="26" y="8" width="4" height="11" transform="matrix(0, -1, 1, 0, 14.47, 41.49)"/><path d="M33.51,10h-11a1.52,1.52,0,0,0-1.5,1.5v4A1.52,1.52,0,0,0,22.5,17h11a1.52,1.52,0,0,0,1.5-1.5v-4a1.5,1.5,0,0,0-3,0v4L33.5,14h-11l1.5,1.5v-4L22.51,13h11A1.5,1.5,0,0,0,33.51,10Z"/></svg>